<?xml version="1.0" encoding="UTF-8"?><svg xmlns="http://www.w3.org/2000/svg" xmlns:xlink="http://www.w3.org/1999/xlink" viewBox="0 0 661 111"><defs><style>.e{fill:#fff;}.f{fill:#ed8aa3;}.g{clip-path:url(#d);}.h{fill:none;}</style><clipPath id="d"><rect class="h" x="114.07" y="18.99" width="128.82" height="20.87"/></clipPath></defs><g id="a"/><g id="b"><g id="c"><rect class="f" width="661" height="111"/><g class="g"><g><path class="e" d="M240.36,26.46h-.03l-1.86,.84-.42-1.96,2.7-1.19h2.14v9.45h-2.53v-7.14Zm-8.56,.19c0,.5,.51,.88,1.13,1.09,.37-.09,.75-.51,.75-.98,0-.51-.29-1.02-.96-1.02-.62,0-.93,.42-.93,.91m2.05,4.37c0-.68-.55-1.15-1.24-1.33-.56,.15-.9,.58-.9,1.17s.44,1.13,1.1,1.13c.61,0,1.03-.42,1.03-.97m-4.8,.09c0-1.13,.62-1.87,1.61-2.31v-.03c-.86-.47-1.31-1.23-1.31-2.06,0-1.65,1.51-2.72,3.5-2.72,2.38,0,3.3,1.34,3.3,2.47,0,.82-.46,1.6-1.3,2.04v.03c.81,.31,1.67,1.06,1.67,2.31,0,1.75-1.45,2.92-3.82,2.92-2.59,0-3.66-1.42-3.66-2.66m-5.32-4.64h-.03l-1.87,.84-.42-1.96,2.7-1.19h2.14v9.45h-2.53v-7.14h0Zm-8.56,.19c0,.5,.5,.88,1.13,1.09,.38-.09,.75-.51,.75-.98,0-.51-.29-1.02-.96-1.02-.62,0-.93,.42-.93,.91m2.05,4.37c0-.68-.54-1.15-1.24-1.33-.56,.15-.9,.58-.9,1.17s.44,1.13,1.11,1.13c.61,0,1.03-.42,1.03-.97m-4.81,.09c0-1.13,.62-1.87,1.61-2.31v-.03c-.86-.47-1.3-1.23-1.3-2.06,0-1.65,1.51-2.72,3.5-2.72,2.39,0,3.3,1.34,3.3,2.47,0,.82-.46,1.6-1.3,2.04v.03c.81,.31,1.67,1.06,1.67,2.31,0,1.75-1.45,2.92-3.82,2.92-2.59,0-3.66-1.42-3.66-2.66m-8.21-4.64h-.03l-1.86,.84-.42-1.96,2.7-1.19h2.14v9.45h-2.53v-7.14Zm-6.44,3.99c0-.67-.32-1.39-1.17-1.39-.52,0-.92,.31-1.07,.69-.06,.12-.08,.28-.08,.56,.06,.76,.43,1.55,1.29,1.55,.65,0,1.03-.62,1.03-1.41m1.59-4.42c-.25-.02-.48-.01-.82,0-1.95,.09-2.73,.88-3,1.78h.05c.48-.41,1.08-.6,1.89-.6,1.55,0,2.96,1.07,2.96,3.1s-1.55,3.45-3.63,3.45c-2.74,0-3.93-2.01-3.93-4.17,0-1.75,.65-3.24,1.71-4.19,1.01-.9,2.31-1.35,3.91-1.39,.42-.02,.67,0,.88,.02v1.99h-.02Zm-14.64,7.58v-1.58l1.31-1.15c1.92-1.66,2.88-2.65,2.91-3.61,0-.68-.45-1.17-1.41-1.17-.79,0-1.51,.39-2.03,.77l-.71-1.87c.73-.53,1.92-.98,3.27-.98,2.2,0,3.5,1.19,3.5,3.06,0,1.51-1.08,2.73-2.19,3.64l-.93,.73v.03h3.29v2.15h-7v-.02Zm-8.34,0v-1.58l1.31-1.15c1.92-1.66,2.89-2.65,2.91-3.61,0-.68-.45-1.17-1.41-1.17-.79,0-1.5,.39-2.03,.77l-.71-1.87c.73-.53,1.92-.98,3.27-.98,2.2,0,3.5,1.19,3.5,3.06,0,1.51-1.08,2.73-2.19,3.64l-.93,.73v.03h3.29v2.15h-7v-.02Zm-10.79-2.46c.4,.2,1.34,.57,2.24,.57s1.55-.34,1.55-1.01c0-.77-.81-1.13-1.67-1.13h-.98v-1.86h.93c.66,0,1.49-.21,1.49-.87,0-.48-.45-.8-1.27-.8s-1.64,.34-2.01,.54l-.5-1.88c.6-.37,1.8-.71,3.12-.71,2.09,0,3.32,1.04,3.32,2.4,0,1-.56,1.78-1.72,2.18v.03c1.12,.2,2.02,1.04,2.02,2.25,0,1.74-1.59,2.91-4.05,2.91-1.3,0-2.37-.31-2.96-.67l.5-1.96h-.01Zm-6.3-2.25c0,2.05,.42,2.92,1.13,2.92,.67,0,1.08-.89,1.08-2.92s-.4-2.91-1.09-2.91-1.12,.87-1.12,2.91m4.82-.02c0,2.79-1.17,4.9-3.72,4.9-2.7,0-3.71-2.39-3.71-4.87s1.06-4.9,3.73-4.9,3.7,2.46,3.7,4.87m-9.02-2.56h-3.7l-.14,1.02c.21-.02,.37-.02,.55-.02,.97,0,1.99,.23,2.69,.76,.7,.52,1.06,1.29,1.06,2.36,0,1.73-1.53,3.35-4.29,3.35-1.19,0-2.19-.25-2.75-.52l.44-1.96c.43,.2,1.33,.45,2.17,.45s1.75-.29,1.75-1.18-.76-1.35-2.64-1.35c-.51,0-.86,.03-1.25,.08l.61-5.14h5.51v2.14h-.01Zm-10.7-.42v3.07h2.93v1.56h-2.93v3.1h-1.64v-3.1h-2.93v-1.56h2.93v-3.07h1.64Z"/><path class="e" d="M123.85,18.99h1.31c.05,0,.1,.03,.16,.03,1.63,.12,3.15,.59,4.53,1.44,2.69,1.66,4.35,4.04,4.93,7.16,.07,.38,.11,.76,.16,1.14v1.31c-.02,.13-.03,.27-.05,.4-.22,2.06-.97,3.91-2.29,5.52-1.64,2-3.73,3.24-6.28,3.7-.39,.07-.78,.11-1.16,.16h-1.31c-.25-.03-.51-.06-.76-.09-1.92-.27-3.65-1.01-5.16-2.24-1.99-1.64-3.24-3.73-3.7-6.28-.07-.38-.11-.78-.16-1.17v-1.31c.02-.13,.03-.27,.05-.4,.24-2.21,1.08-4.17,2.55-5.83,1.62-1.83,3.64-2.97,6.06-3.39,.37-.06,.75-.11,1.13-.16m-5.43,16.62c.09-.02,.14-.03,.2-.04,.98-.25,1.95-.51,2.93-.76,.1-.03,.24,0,.34,.04,1.15,.56,2.35,.78,3.62,.62,3.47-.44,5.9-3.69,5.37-7.16-.52-3.43-3.8-5.78-7.22-5.19-4.22,.73-6.47,5.35-4.46,9.12,.05,.09,.06,.24,.03,.34-.26,1-.54,2-.82,3.04"/><path class="e" d="M119.93,34.13c.16-.59,.31-1.16,.47-1.71,.04-.14,.02-.25-.06-.38-1.91-3.09-.27-7.02,3.26-7.84,2.88-.67,5.8,1.32,6.25,4.25,.43,2.86-1.48,5.5-4.34,5.94-1.23,.19-2.39-.06-3.47-.68-.09-.05-.22-.07-.32-.04-.59,.14-1.17,.3-1.8,.46m6.44-1.87c.1,0,.2,0,.29-.02,.72-.14,1.26-.56,1.24-1.34,0-.08-.05-.19-.1-.22-.43-.22-.88-.43-1.32-.64-.13-.06-.23-.02-.32,.1-.15,.2-.31,.38-.46,.57-.09,.12-.2,.14-.34,.08-.92-.37-1.62-.98-2.12-1.82-.08-.13-.07-.23,.03-.35,.13-.15,.25-.3,.35-.47,.05-.09,.08-.23,.04-.32-.15-.41-.33-.82-.5-1.22-.03-.08-.1-.17-.18-.21-.21-.11-.67-.03-.84,.14-.49,.47-.66,1.05-.52,1.71,.12,.57,.43,1.03,.77,1.48,.66,.87,1.42,1.62,2.44,2.07,.49,.22,.99,.44,1.54,.44"/></g></g><g><path class="e" d="M277.27,28.86c0,1.03-.84,1.87-1.87,1.87s-1.87-.84-1.87-1.87,.84-1.87,1.87-1.87,1.87,.84,1.87,1.87"/><path class="e" d="M279.62,25.51c-.09-.24-.23-.46-.42-.64-.18-.19-.4-.33-.64-.42-.2-.08-.49-.17-1.04-.19-.59-.03-.77-.03-2.26-.03s-1.67,0-2.26,.03c-.55,.03-.84,.12-1.04,.19-.24,.09-.46,.23-.64,.42-.19,.18-.33,.4-.42,.64-.08,.2-.17,.49-.19,1.04-.03,.59-.03,.77-.03,2.26s0,1.67,.03,2.26c.03,.55,.12,.84,.19,1.04,.09,.24,.23,.46,.42,.64,.18,.19,.4,.33,.64,.42,.2,.08,.49,.17,1.04,.19,.59,.03,.77,.03,2.26,.03s1.67,0,2.26-.03c.55-.03,.84-.12,1.04-.19,.49-.19,.87-.58,1.06-1.06,.08-.2,.17-.5,.19-1.04,.03-.59,.03-.77,.03-2.26s0-1.67-.03-2.26c-.02-.55-.12-.84-.19-1.04m-4.37,6.18c-1.59,0-2.88-1.29-2.88-2.88s1.29-2.88,2.88-2.88,2.88,1.29,2.88,2.88-1.29,2.88-2.88,2.88m2.99-5.2c-.37,0-.67-.3-.67-.67s.3-.67,.67-.67,.67,.3,.67,.67-.3,.67-.67,.67"/><path class="e" d="M275.25,19.05c-5.39,0-9.76,4.37-9.76,9.76s4.37,9.76,9.76,9.76,9.76-4.37,9.76-9.76-4.37-9.76-9.76-9.76m5.57,12.07c-.03,.6-.12,1-.26,1.36-.29,.75-.89,1.35-1.64,1.64-.36,.14-.76,.23-1.36,.26-.6,.03-.79,.03-2.31,.03s-1.71,0-2.31-.03-1-.12-1.36-.26c-.37-.14-.71-.36-.99-.65-.28-.28-.51-.62-.65-.99-.14-.36-.23-.76-.26-1.36s-.03-.79-.03-2.31,0-1.71,.03-2.31,.12-1,.26-1.36c.14-.37,.36-.71,.65-.99,.28-.29,.62-.51,.99-.65,.36-.14,.76-.23,1.36-.26,.6-.03,.79-.03,2.31-.03s1.71,0,2.31,.03,1,.12,1.36,.26c.37,.14,.71,.36,.99,.65,.28,.28,.51,.62,.65,.99,.14,.36,.23,.76,.26,1.36s.03,.79,.03,2.31,0,1.71-.03,2.31"/></g><path class="e" d="M304.47,28.46c0-5.01-4.06-9.08-9.08-9.08s-9.08,4.06-9.08,9.08,4.06,9.08,9.08,9.08h.16v-7.06h-1.95v-2.27h1.95v-1.67c0-1.94,1.18-3,2.91-3,.83,0,1.54,.06,1.75,.09v2.03h-1.19c-.94,0-1.12,.45-1.12,1.1v1.45h2.25l-.29,2.27h-1.96v6.72c3.79-1.09,6.57-4.58,6.57-8.73"/><g><path class="e" d="M315.69,31.25c-.31,0-.58-.07-.83-.22-.24-.14-.41-.38-.51-.7-.27,.33-.55,.56-.85,.7-.3,.14-.62,.21-.96,.21-.29,0-.53-.05-.74-.15s-.39-.24-.53-.41c-.14-.17-.25-.38-.32-.62-.07-.24-.11-.5-.11-.78,0-.26,.03-.52,.1-.78,.07-.27,.16-.52,.3-.77,.13-.25,.3-.48,.49-.69,.2-.21,.43-.4,.7-.56,.27-.16,.57-.29,.9-.38s.7-.14,1.1-.14c.35,0,.65,.03,.9,.08s.49,.13,.72,.23l-.65,2.52c-.07,.29-.11,.53-.11,.73,0,.13,.02,.25,.05,.34s.08,.16,.14,.22c.06,.05,.13,.09,.21,.11,.08,.02,.17,.03,.26,.03,.19,0,.37-.06,.54-.18s.32-.29,.44-.51c.13-.22,.23-.48,.3-.78s.11-.62,.11-.98c0-.59-.09-1.11-.27-1.56-.18-.45-.44-.82-.77-1.12s-.72-.53-1.18-.68-.96-.23-1.5-.23c-.59,0-1.14,.11-1.65,.34-.51,.22-.95,.53-1.32,.92s-.67,.85-.88,1.38-.32,1.1-.32,1.71c0,.74,.12,1.4,.35,1.96s.55,1.04,.95,1.41c.4,.38,.88,.66,1.42,.85,.55,.19,1.14,.29,1.77,.29,.35,0,.67-.02,.98-.06,.3-.04,.58-.09,.84-.16,.25-.07,.48-.14,.69-.22s.39-.17,.56-.27c.09-.05,.17-.08,.23-.08,.13,0,.22,.07,.28,.22l.23,.6c-.47,.31-1.02,.56-1.65,.75s-1.35,.29-2.15,.29-1.58-.13-2.28-.39-1.3-.63-1.81-1.11-.91-1.07-1.2-1.76-.43-1.47-.43-2.34c0-.48,.06-.96,.19-1.41,.12-.46,.3-.89,.53-1.29s.51-.77,.84-1.1c.33-.33,.69-.62,1.09-.86s.83-.43,1.29-.56c.46-.13,.95-.2,1.46-.2,.64,0,1.26,.11,1.85,.32,.59,.22,1.11,.52,1.57,.92s.82,.89,1.09,1.47,.41,1.23,.41,1.95c0,.49-.07,.94-.21,1.36-.14,.42-.34,.79-.6,1.1s-.56,.56-.9,.74c-.35,.18-.72,.27-1.13,.27l-.02,.03Zm-2.81-1.09c.12,0,.24-.02,.36-.05,.12-.04,.23-.1,.34-.19,.11-.09,.21-.22,.3-.37s.17-.35,.22-.58l.5-1.92c-.15-.03-.29-.04-.45-.04-.28,0-.54,.06-.79,.18-.24,.12-.46,.29-.63,.5-.18,.21-.32,.45-.42,.72-.1,.27-.16,.55-.16,.84s.06,.51,.19,.68c.12,.16,.31,.24,.55,.24h0Z"/><path class="e" d="M323.33,32.5h-1.52l-2.77-6.97h1.39c.12,0,.23,.03,.31,.09s.14,.13,.17,.22l1.34,3.72c.08,.22,.14,.43,.19,.64s.1,.42,.14,.62c.04-.21,.09-.42,.14-.62,.05-.21,.12-.42,.2-.64l1.38-3.72c.03-.09,.09-.17,.17-.22,.08-.06,.18-.09,.29-.09h1.32l-2.76,6.97h0Z"/></g><g><path class="e" d="M329.56,25.42c.52,0,.99,.08,1.42,.25s.79,.41,1.08,.71c.3,.31,.53,.68,.69,1.13s.25,.94,.25,1.49-.08,1.05-.25,1.49c-.16,.44-.39,.82-.69,1.13s-.66,.55-1.08,.72-.9,.25-1.42,.25-.99-.08-1.42-.25c-.43-.17-.79-.41-1.09-.72s-.53-.69-.7-1.13c-.17-.44-.25-.94-.25-1.49s.08-1.04,.25-1.49c.17-.44,.4-.82,.7-1.13s.66-.55,1.09-.71c.43-.17,.9-.25,1.42-.25Zm0,5.89c.58,0,1.01-.2,1.29-.58,.28-.39,.42-.96,.42-1.71s-.14-1.33-.42-1.72-.71-.59-1.29-.59-1.02,.2-1.3,.59c-.28,.4-.42,.97-.42,1.72s.14,1.32,.42,1.71,.72,.59,1.3,.59h0Z"/><path class="e" d="M336.72,25.4c.3,0,.58,.03,.84,.09s.5,.15,.72,.27h2v.62c0,.1-.03,.19-.08,.24-.05,.06-.15,.1-.28,.12l-.62,.12c.04,.12,.08,.24,.11,.37,.02,.13,.04,.27,.04,.42,0,.34-.07,.66-.21,.93s-.33,.51-.57,.71-.53,.35-.86,.45c-.33,.11-.69,.16-1.08,.16-.26,0-.52-.03-.77-.07-.22,.13-.33,.28-.33,.44,0,.14,.06,.25,.19,.31,.13,.07,.3,.11,.51,.14,.21,.03,.45,.04,.72,.04s.54,.01,.82,.03,.55,.06,.82,.12,.51,.15,.72,.27,.38,.29,.51,.5,.19,.48,.19,.81c0,.31-.08,.61-.23,.9s-.37,.55-.66,.78c-.29,.23-.64,.41-1.06,.55s-.89,.21-1.43,.21-.99-.05-1.38-.15-.71-.24-.97-.41-.45-.37-.57-.59c-.13-.22-.19-.45-.19-.69,0-.33,.1-.6,.3-.82,.2-.22,.48-.4,.83-.53-.17-.09-.31-.22-.41-.38-.1-.16-.16-.37-.16-.62,0-.1,.02-.21,.05-.32s.09-.22,.17-.33c.08-.11,.17-.21,.28-.31s.25-.18,.4-.26c-.35-.19-.63-.44-.83-.76-.2-.32-.3-.69-.3-1.11,0-.34,.07-.66,.21-.93,.14-.28,.33-.52,.58-.71,.25-.2,.54-.35,.88-.45,.34-.1,.71-.16,1.1-.16h0Zm1.84,7.39c0-.14-.04-.25-.12-.34s-.19-.16-.33-.2c-.14-.05-.3-.08-.49-.11-.19-.02-.39-.03-.6-.03h-.65c-.22,0-.44-.03-.65-.08-.19,.1-.34,.23-.46,.37s-.17,.31-.17,.49c0,.12,.03,.24,.09,.34,.06,.11,.16,.2,.29,.28s.31,.14,.52,.18,.47,.06,.78,.06,.58-.02,.81-.07c.22-.05,.41-.12,.56-.2,.15-.08,.26-.19,.32-.3,.07-.12,.1-.25,.1-.39h0Zm-1.84-3.95c.21,0,.39-.03,.54-.08s.28-.13,.38-.23,.18-.22,.23-.36c.05-.14,.08-.29,.08-.46,0-.34-.1-.62-.31-.82s-.52-.3-.93-.3-.72,.1-.93,.3c-.21,.2-.31,.47-.31,.82,0,.16,.03,.32,.08,.46s.13,.26,.23,.36,.23,.18,.39,.24,.34,.08,.54,.08h0Z"/><path class="e" d="M342.88,25.53v4.43c0,.43,.1,.75,.3,.99,.2,.23,.49,.35,.89,.35,.29,0,.56-.06,.82-.19,.25-.13,.49-.31,.72-.53v-5.04h1.68v6.97h-1.03c-.22,0-.36-.1-.43-.31l-.12-.56c-.14,.14-.29,.28-.45,.4-.15,.12-.32,.22-.49,.31-.17,.08-.36,.15-.56,.2-.2,.05-.42,.07-.65,.07-.38,0-.72-.06-1.01-.19s-.54-.31-.74-.55c-.2-.24-.35-.52-.45-.84s-.15-.68-.15-1.07v-4.43h1.67Z"/><path class="e" d="M351.94,25.42c.44,0,.84,.07,1.21,.21s.69,.35,.95,.61c.27,.27,.48,.6,.62,.99s.22,.84,.22,1.34c0,.13,0,.23-.02,.32-.01,.08-.03,.15-.06,.2s-.07,.08-.12,.1-.11,.03-.19,.03h-4.31c.05,.72,.24,1.24,.58,1.58,.33,.34,.78,.5,1.33,.5,.27,0,.51-.03,.7-.09,.2-.06,.37-.13,.52-.21s.28-.15,.39-.21c.11-.06,.22-.09,.32-.09,.07,0,.13,.01,.18,.04s.09,.07,.13,.12l.49,.61c-.19,.22-.39,.4-.62,.55-.23,.15-.47,.27-.72,.35-.25,.09-.51,.15-.77,.19-.26,.04-.51,.05-.76,.05-.49,0-.94-.08-1.35-.24-.42-.16-.78-.4-1.09-.71s-.55-.7-.73-1.17c-.18-.46-.26-1-.26-1.61,0-.48,.08-.92,.23-1.34,.15-.42,.37-.78,.66-1.09s.64-.55,1.05-.74,.88-.27,1.4-.27l.02-.02Zm.04,1.2c-.49,0-.87,.14-1.15,.42s-.45,.67-.53,1.17h3.15c0-.22-.03-.42-.09-.62-.06-.19-.15-.36-.27-.51-.12-.14-.28-.26-.46-.34-.19-.08-.4-.13-.65-.13h0Z"/><path class="e" d="M361.22,27c-.05,.06-.1,.11-.15,.15s-.12,.05-.21,.05-.17-.03-.25-.08-.18-.11-.29-.18c-.11-.07-.25-.12-.4-.18s-.35-.08-.58-.08c-.29,0-.55,.05-.77,.16s-.41,.26-.55,.46c-.15,.2-.26,.44-.33,.72-.07,.28-.11,.6-.11,.96s.04,.7,.12,.99,.19,.53,.34,.73,.33,.35,.54,.45c.21,.1,.45,.15,.72,.15s.48-.03,.65-.1c.17-.07,.3-.14,.42-.22,.11-.08,.21-.15,.3-.22,.08-.07,.18-.1,.28-.1,.14,0,.24,.05,.31,.16l.48,.61c-.19,.22-.39,.4-.6,.55-.22,.15-.44,.27-.68,.35-.23,.09-.47,.15-.72,.19s-.5,.05-.74,.05c-.43,0-.84-.08-1.22-.24-.38-.16-.71-.39-1-.7-.28-.31-.51-.68-.67-1.13-.17-.45-.25-.95-.25-1.52,0-.51,.07-.99,.22-1.42s.36-.82,.65-1.13c.29-.32,.64-.57,1.06-.75,.42-.18,.91-.27,1.45-.27s.98,.08,1.37,.25,.74,.41,1.06,.72l-.44,.61h-.01Z"/><path class="e" d="M365.78,25.42c.52,0,.99,.08,1.42,.25,.42,.17,.78,.41,1.08,.71s.53,.68,.69,1.13c.16,.44,.25,.94,.25,1.49s-.08,1.05-.25,1.49c-.16,.44-.39,.82-.69,1.13s-.66,.55-1.08,.72c-.42,.17-.9,.25-1.42,.25s-.99-.08-1.42-.25-.79-.41-1.09-.72-.54-.69-.7-1.13c-.17-.44-.25-.94-.25-1.49s.08-1.04,.25-1.49,.4-.82,.7-1.13c.3-.31,.66-.55,1.09-.71s.9-.25,1.42-.25Zm0,5.89c.58,0,1.01-.2,1.29-.58,.28-.39,.42-.96,.42-1.71s-.14-1.33-.42-1.72-.71-.59-1.29-.59-1.02,.2-1.3,.59c-.28,.4-.42,.97-.42,1.72s.14,1.32,.42,1.71,.72,.59,1.3,.59h0Z"/><path class="e" d="M370.53,32.5v-6.97h.99c.17,0,.29,.03,.36,.09,.07,.06,.11,.17,.14,.33l.1,.84c.25-.43,.54-.77,.88-1.02s.71-.37,1.13-.37c.34,0,.63,.08,.86,.24l-.22,1.26c-.01,.08-.04,.14-.09,.17s-.11,.05-.18,.05-.16-.02-.28-.05c-.12-.03-.27-.05-.47-.05-.35,0-.65,.1-.9,.29s-.46,.47-.63,.85v4.34h-1.69Z"/><path class="e" d="M376.08,34.77v-9.24h1.03c.11,0,.2,.02,.28,.08,.08,.05,.13,.13,.15,.23l.14,.64c.28-.32,.6-.58,.97-.78,.36-.2,.79-.3,1.28-.3,.38,0,.73,.08,1.04,.24,.32,.16,.59,.39,.82,.69s.41,.67,.53,1.11,.19,.95,.19,1.52c0,.52-.07,1-.21,1.45-.14,.44-.34,.83-.6,1.15-.26,.33-.58,.58-.94,.76s-.78,.28-1.24,.28c-.39,0-.73-.06-1-.18s-.52-.29-.74-.5v2.85h-1.7Zm3.26-8.05c-.35,0-.65,.07-.89,.22s-.48,.35-.69,.62v3.12c.19,.24,.4,.4,.62,.49s.47,.14,.72,.14,.48-.05,.69-.14c.21-.1,.38-.24,.52-.44,.14-.19,.25-.44,.33-.74,.08-.3,.12-.65,.12-1.05s-.03-.75-.1-1.04c-.07-.28-.16-.51-.28-.69s-.27-.3-.45-.39c-.17-.08-.37-.12-.59-.12v.02Z"/><path class="e" d="M383.36,31.57c0-.14,.03-.27,.08-.4,.05-.13,.12-.23,.22-.33s.2-.16,.33-.22c.13-.05,.26-.08,.41-.08s.27,.03,.4,.08,.24,.13,.33,.22,.16,.2,.22,.33c.05,.13,.08,.26,.08,.4s-.03,.28-.08,.4-.13,.23-.22,.32-.2,.16-.33,.21c-.13,.05-.26,.08-.4,.08s-.28-.03-.41-.08-.24-.12-.33-.21-.17-.2-.22-.32-.08-.26-.08-.4Z"/></g><g><path class="e" d="M391.3,26.89c-.05,.07-.09,.12-.14,.15s-.11,.04-.19,.04-.17-.02-.26-.07-.2-.1-.32-.15-.26-.11-.42-.15-.34-.07-.55-.07c-.33,0-.59,.07-.78,.21s-.29,.32-.29,.55c0,.15,.05,.28,.15,.38s.23,.19,.39,.27c.16,.08,.34,.15,.55,.21,.2,.06,.41,.13,.62,.2s.42,.16,.62,.25c.2,.09,.39,.21,.55,.35,.16,.14,.29,.31,.39,.51,.1,.2,.15,.44,.15,.72,0,.34-.06,.64-.18,.93s-.3,.53-.54,.73c-.24,.21-.53,.37-.87,.48-.35,.12-.74,.17-1.19,.17-.24,0-.47-.02-.7-.06s-.45-.1-.66-.18-.41-.17-.58-.27c-.18-.1-.34-.22-.47-.34l.39-.64c.05-.08,.11-.14,.18-.18s.15-.06,.26-.06,.2,.03,.29,.09,.2,.12,.32,.19,.27,.13,.43,.19c.17,.06,.38,.09,.63,.09,.2,0,.37-.02,.51-.07s.26-.11,.35-.19,.16-.17,.2-.27,.06-.21,.06-.32c0-.16-.05-.3-.15-.4s-.23-.19-.39-.27c-.16-.08-.34-.15-.55-.21s-.42-.13-.63-.2-.43-.16-.63-.25-.39-.22-.55-.37c-.16-.15-.29-.33-.39-.55s-.15-.48-.15-.79c0-.29,.06-.56,.17-.81s.28-.48,.5-.68,.49-.35,.82-.46c.33-.12,.71-.17,1.14-.17,.48,0,.92,.08,1.31,.24,.39,.16,.72,.37,.98,.62l-.38,.6h0Z"/><path class="e" d="M396.59,32.5h-1.52l-2.77-6.97h1.39c.12,0,.23,.03,.31,.09s.14,.13,.17,.22l1.34,3.72c.08,.22,.14,.43,.19,.64s.1,.42,.14,.62c.04-.21,.09-.42,.14-.62,.05-.21,.12-.42,.2-.64l1.38-3.72c.03-.09,.09-.17,.17-.22,.08-.06,.18-.09,.29-.09h1.32l-2.76,6.97h0Z"/></g><g><path class="e" d="M434.62,26.31h1.2c.11,0,.21,.03,.29,.08,.08,.05,.13,.12,.15,.2l.9,3.35c.05,.18,.09,.36,.12,.54s.06,.35,.09,.53c.04-.17,.09-.35,.14-.53,.05-.17,.1-.35,.16-.54l1.04-3.36c.02-.08,.07-.15,.15-.2s.16-.08,.26-.08h.67c.11,0,.2,.03,.28,.08,.07,.05,.12,.12,.15,.2l1.03,3.42c.05,.17,.1,.34,.14,.51,.04,.16,.08,.33,.13,.5,.03-.17,.06-.35,.09-.52,.04-.18,.08-.36,.13-.54l.93-3.35c.02-.08,.07-.15,.15-.2,.08-.05,.17-.08,.27-.08h1.14l-1.98,6.27h-1.22c-.13,0-.22-.09-.28-.27l-1.13-3.62c-.04-.12-.07-.24-.1-.36s-.06-.24-.08-.36c-.02,.12-.05,.24-.08,.36s-.06,.24-.1,.36l-1.14,3.61c-.06,.18-.17,.27-.33,.27h-1.15l-1.98-6.27h-.04Z"/><path class="e" d="M444.28,26.31h1.2c.11,0,.21,.03,.29,.08,.08,.05,.13,.12,.15,.2l.9,3.35c.05,.18,.09,.36,.12,.54s.06,.35,.09,.53c.04-.17,.09-.35,.14-.53,.05-.17,.1-.35,.16-.54l1.04-3.36c.02-.08,.07-.15,.15-.2s.16-.08,.26-.08h.67c.11,0,.2,.03,.28,.08,.07,.05,.12,.12,.15,.2l1.03,3.42c.05,.17,.1,.34,.14,.51,.04,.16,.08,.33,.13,.5,.03-.17,.06-.35,.09-.52,.04-.18,.08-.36,.13-.54l.93-3.35c.02-.08,.07-.15,.15-.2,.08-.05,.17-.08,.27-.08h1.14l-1.98,6.27h-1.22c-.13,0-.22-.09-.28-.27l-1.13-3.62c-.04-.12-.07-.24-.1-.36s-.06-.24-.08-.36c-.02,.12-.05,.24-.08,.36s-.06,.24-.1,.36l-1.14,3.61c-.06,.18-.17,.27-.33,.27h-1.15l-1.98-6.27h-.04Z"/><path class="e" d="M453.94,26.31h1.2c.11,0,.21,.03,.29,.08,.08,.05,.13,.12,.15,.2l.9,3.35c.05,.18,.09,.36,.12,.54s.06,.35,.09,.53c.04-.17,.09-.35,.14-.53,.05-.17,.1-.35,.16-.54l1.04-3.36c.02-.08,.07-.15,.15-.2s.16-.08,.26-.08h.67c.11,0,.2,.03,.28,.08,.07,.05,.12,.12,.15,.2l1.03,3.42c.05,.17,.1,.34,.14,.51,.04,.16,.08,.33,.13,.5,.03-.17,.06-.35,.09-.52,.04-.18,.08-.36,.13-.54l.93-3.35c.02-.08,.07-.15,.15-.2,.08-.05,.17-.08,.27-.08h1.14l-1.98,6.27h-1.22c-.13,0-.22-.09-.28-.27l-1.13-3.62c-.04-.12-.07-.24-.1-.36s-.06-.24-.08-.36c-.02,.12-.05,.24-.08,.36s-.06,.24-.1,.36l-1.14,3.61c-.06,.18-.17,.27-.33,.27h-1.15l-1.98-6.27h-.04Z"/><path class="e" d="M464,31.75c0-.13,.02-.25,.07-.36,.05-.11,.11-.21,.2-.29,.08-.08,.18-.15,.3-.2s.24-.07,.37-.07,.25,.02,.36,.07,.21,.12,.29,.2c.08,.08,.15,.18,.2,.29s.07,.23,.07,.36-.02,.25-.07,.36c-.05,.11-.11,.21-.2,.29-.08,.08-.18,.15-.29,.19s-.23,.07-.36,.07-.25-.02-.37-.07-.21-.11-.3-.19c-.08-.08-.15-.18-.2-.29-.05-.11-.07-.23-.07-.36Z"/><path class="e" d="M470.25,32.58h-1.37l-2.49-6.27h1.25c.11,0,.2,.03,.28,.08s.13,.12,.16,.2l1.21,3.35c.07,.2,.13,.39,.17,.57,.05,.19,.09,.38,.13,.56,.04-.19,.08-.38,.12-.56,.05-.19,.11-.38,.18-.57l1.24-3.35c.03-.08,.08-.15,.15-.2s.16-.08,.26-.08h1.19l-2.49,6.27h0Z"/><path class="e" d="M476.3,26.21c.47,0,.89,.08,1.27,.23,.38,.15,.71,.36,.97,.64,.27,.28,.48,.62,.62,1.01s.22,.84,.22,1.34-.07,.94-.22,1.34c-.15,.4-.35,.74-.62,1.02s-.59,.5-.97,.65-.81,.23-1.27,.23-.89-.08-1.28-.23c-.38-.15-.71-.37-.98-.65s-.48-.62-.63-1.02c-.15-.4-.22-.85-.22-1.34s.07-.94,.22-1.34,.36-.74,.63-1.01,.6-.49,.98-.64,.81-.23,1.28-.23Zm0,5.3c.52,0,.91-.17,1.16-.53,.25-.35,.38-.86,.38-1.54s-.12-1.19-.38-1.54c-.25-.35-.64-.53-1.16-.53s-.92,.18-1.17,.53c-.25,.36-.38,.87-.38,1.54s.13,1.18,.38,1.54c.25,.35,.64,.53,1.17,.53Z"/><path class="e" d="M482.74,26.2c.27,0,.52,.03,.76,.08,.24,.05,.45,.13,.65,.24h1.8v.56c0,.09-.02,.17-.07,.22-.05,.05-.13,.09-.25,.11l-.56,.1c.04,.11,.07,.22,.09,.34s.03,.24,.03,.37c0,.31-.06,.59-.19,.84-.12,.25-.29,.46-.51,.64s-.48,.31-.78,.41c-.3,.1-.62,.14-.97,.14-.24,0-.47-.02-.69-.07-.2,.12-.29,.25-.29,.4,0,.13,.06,.22,.17,.28,.12,.06,.27,.1,.46,.12,.19,.03,.4,.04,.64,.04s.49,0,.74,.03c.25,.02,.5,.06,.74,.11s.45,.13,.64,.24,.34,.26,.46,.45c.12,.19,.17,.43,.17,.73,0,.28-.07,.55-.21,.81s-.33,.49-.59,.7c-.26,.2-.57,.37-.95,.49-.38,.12-.8,.19-1.28,.19s-.89-.04-1.24-.14-.64-.21-.87-.37c-.23-.15-.4-.33-.52-.53-.11-.2-.17-.41-.17-.62,0-.29,.09-.54,.27-.74s.43-.36,.75-.48c-.15-.09-.28-.2-.37-.34s-.14-.33-.14-.55c0-.09,.02-.19,.05-.29s.08-.2,.15-.3,.15-.19,.25-.28,.22-.17,.36-.23c-.32-.17-.57-.4-.75-.68s-.27-.62-.27-1c0-.31,.06-.59,.19-.84,.12-.25,.3-.46,.52-.64s.48-.31,.79-.41c.3-.09,.63-.14,.99-.14h0Zm1.66,6.65c0-.12-.04-.23-.11-.31s-.17-.14-.3-.18c-.13-.04-.27-.08-.44-.1s-.35-.03-.54-.03h-.59c-.2,0-.4-.02-.58-.07-.17,.09-.31,.2-.41,.33-.1,.13-.16,.28-.16,.44,0,.11,.03,.21,.08,.31s.14,.18,.26,.25,.28,.12,.47,.16,.43,.06,.7,.06,.52-.02,.73-.07c.2-.04,.37-.1,.5-.18s.23-.17,.29-.28,.09-.22,.09-.35v.02Zm-1.65-3.55c.19,0,.35-.03,.49-.08s.25-.12,.35-.21c.09-.09,.16-.2,.21-.32,.05-.13,.07-.26,.07-.42,0-.31-.09-.55-.28-.74-.19-.18-.46-.27-.83-.27s-.65,.09-.83,.27c-.19,.18-.28,.43-.28,.74,0,.15,.02,.28,.07,.41,.05,.13,.12,.24,.21,.33,.09,.09,.21,.16,.35,.21,.14,.05,.3,.08,.49,.08h-.02Z"/><path class="e" d="M488.28,26.31v3.98c0,.38,.09,.68,.27,.89s.44,.31,.8,.31c.26,0,.5-.06,.73-.17,.23-.12,.44-.28,.65-.48v-4.53h1.51v6.27h-.92c-.2,0-.32-.09-.38-.27l-.1-.5c-.13,.13-.26,.25-.4,.36s-.29,.2-.44,.28c-.16,.07-.33,.13-.51,.18-.18,.04-.38,.06-.58,.06-.34,0-.64-.06-.91-.17-.26-.12-.48-.28-.66-.49s-.31-.46-.41-.75c-.09-.29-.14-.61-.14-.96v-3.98h1.51l-.02-.03Z"/><path class="e" d="M496.43,26.21c.4,0,.76,.06,1.09,.19,.33,.13,.62,.31,.86,.55s.43,.54,.56,.89,.2,.75,.2,1.21c0,.11,0,.21-.01,.28-.01,.08-.03,.13-.06,.18s-.06,.07-.11,.09c-.04,.02-.1,.03-.17,.03h-3.87c.04,.64,.22,1.12,.52,1.42,.3,.3,.7,.45,1.2,.45,.24,0,.46-.03,.63-.09,.18-.06,.33-.12,.46-.19s.25-.13,.35-.19c.1-.06,.2-.08,.29-.08,.06,0,.11,.01,.16,.04,.04,.03,.08,.06,.12,.1l.44,.55c-.17,.2-.35,.36-.56,.49s-.42,.24-.65,.32c-.23,.08-.46,.14-.69,.17s-.46,.05-.68,.05c-.44,0-.84-.07-1.21-.22-.38-.14-.7-.36-.98-.64s-.49-.63-.65-1.05-.24-.9-.24-1.45c0-.43,.07-.83,.21-1.21,.14-.38,.34-.71,.59-.98,.26-.28,.57-.5,.95-.66,.37-.16,.79-.24,1.26-.24h-.01Zm.03,1.07c-.44,0-.78,.12-1.03,.37s-.41,.6-.48,1.06h2.83c0-.2-.03-.38-.08-.55-.05-.17-.13-.32-.24-.46-.11-.13-.25-.23-.42-.31-.17-.08-.36-.11-.59-.11h.01Z"/><path class="e" d="M502.96,26.21c.4,0,.76,.06,1.09,.19,.33,.13,.62,.31,.86,.55s.43,.54,.56,.89,.2,.75,.2,1.21c0,.11,0,.21-.01,.28-.01,.08-.03,.13-.06,.18s-.06,.07-.11,.09c-.04,.02-.1,.03-.17,.03h-3.87c.04,.64,.22,1.12,.52,1.42,.3,.3,.7,.45,1.2,.45,.24,0,.46-.03,.63-.09,.18-.06,.33-.12,.46-.19s.25-.13,.35-.19c.1-.06,.2-.08,.29-.08,.06,0,.11,.01,.16,.04,.04,.03,.08,.06,.12,.1l.44,.55c-.17,.2-.35,.36-.56,.49s-.42,.24-.65,.32c-.23,.08-.46,.14-.69,.17s-.46,.05-.68,.05c-.44,0-.84-.07-1.21-.22-.38-.14-.7-.36-.98-.64s-.49-.63-.65-1.05-.24-.9-.24-1.45c0-.43,.07-.83,.21-1.21,.14-.38,.34-.71,.59-.98,.26-.28,.57-.5,.95-.66,.37-.16,.79-.24,1.26-.24h-.01Zm.03,1.07c-.44,0-.78,.12-1.03,.37s-.41,.6-.48,1.06h2.83c0-.2-.03-.38-.08-.55-.05-.17-.13-.32-.24-.46-.11-.13-.25-.23-.42-.31-.17-.08-.36-.11-.59-.11h.01Z"/><path class="e" d="M508.5,23.5v9.08h-1.51v-9.08h1.51Z"/><path class="e" d="M513.93,27.53c-.04,.07-.08,.11-.13,.14s-.1,.04-.17,.04-.15-.02-.24-.06c-.08-.04-.18-.09-.29-.14s-.24-.1-.38-.14-.31-.06-.5-.06c-.3,0-.53,.06-.7,.19-.17,.13-.26,.29-.26,.5,0,.13,.04,.25,.13,.34s.2,.17,.35,.24,.31,.13,.49,.19c.18,.06,.37,.12,.56,.18s.38,.14,.56,.22,.35,.19,.49,.32,.26,.28,.35,.46,.13,.4,.13,.65c0,.3-.05,.58-.16,.83s-.27,.47-.48,.66c-.21,.19-.47,.33-.78,.43-.31,.1-.67,.16-1.07,.16-.22,0-.43-.02-.63-.06-.21-.04-.4-.09-.59-.16-.19-.07-.36-.15-.53-.25-.16-.09-.3-.2-.42-.31l.35-.57c.04-.07,.1-.12,.16-.16s.14-.05,.23-.05,.18,.03,.27,.08c.08,.05,.18,.11,.29,.17,.11,.06,.24,.12,.39,.17,.15,.05,.34,.08,.56,.08,.18,0,.33-.02,.46-.06s.23-.1,.32-.17c.08-.07,.14-.15,.18-.24s.06-.19,.06-.28c0-.15-.04-.27-.13-.36-.09-.09-.2-.17-.35-.24s-.31-.13-.5-.19c-.19-.05-.38-.11-.57-.18-.19-.06-.38-.14-.57-.23s-.35-.2-.5-.33c-.14-.13-.26-.3-.35-.5s-.13-.43-.13-.71c0-.26,.05-.5,.15-.73s.25-.43,.45-.61c.2-.17,.44-.31,.74-.42,.29-.1,.64-.16,1.02-.16,.43,0,.82,.07,1.18,.21,.35,.14,.65,.33,.89,.56l-.34,.54h0Z"/><path class="e" d="M520.46,32.58h-.68c-.14,0-.25-.02-.34-.06-.08-.04-.14-.13-.18-.26l-.13-.45c-.16,.14-.32,.27-.47,.38s-.31,.2-.47,.27-.34,.13-.52,.16c-.18,.04-.39,.05-.61,.05-.26,0-.51-.04-.73-.11s-.42-.18-.58-.32c-.16-.14-.29-.32-.38-.53s-.13-.46-.13-.74c0-.24,.06-.47,.19-.7s.33-.44,.62-.62c.29-.19,.67-.34,1.15-.46s1.08-.18,1.79-.18v-.37c0-.42-.09-.74-.27-.94-.18-.2-.43-.3-.77-.3-.24,0-.45,.03-.61,.09s-.3,.12-.42,.19-.23,.14-.33,.19c-.1,.06-.21,.09-.34,.09-.1,0-.19-.03-.26-.08s-.13-.12-.18-.2l-.27-.48c.72-.66,1.59-.99,2.61-.99,.37,0,.69,.06,.98,.18s.53,.29,.73,.5c.2,.21,.35,.47,.45,.77,.1,.3,.16,.62,.16,.98v3.94Zm-2.95-.94c.15,0,.3-.01,.43-.04s.25-.07,.37-.13,.23-.12,.34-.21c.11-.08,.22-.18,.33-.29v-1.05c-.44,0-.81,.03-1.1,.08-.3,.06-.53,.13-.71,.21-.18,.09-.31,.19-.38,.3s-.11,.24-.11,.38c0,.27,.08,.46,.23,.57,.16,.11,.36,.17,.61,.17h-.01Z"/><path class="e" d="M523.55,23.5v9.08h-1.51v-9.08h1.51Z"/><path class="e" d="M528.39,32.58h-1.37l-2.49-6.27h1.25c.11,0,.2,.03,.28,.08s.13,.12,.16,.2l1.21,3.35c.07,.2,.13,.39,.17,.57,.05,.19,.09,.38,.13,.56,.04-.19,.08-.38,.12-.56,.05-.19,.11-.38,.18-.57l1.24-3.35c.03-.08,.08-.15,.15-.2s.16-.08,.26-.08h1.19l-2.49,6.27h0Z"/><path class="e" d="M536.68,32.58h-.68c-.14,0-.25-.02-.34-.06-.08-.04-.14-.13-.18-.26l-.13-.45c-.16,.14-.32,.27-.47,.38s-.31,.2-.47,.27-.34,.13-.52,.16c-.18,.04-.39,.05-.61,.05-.26,0-.51-.04-.73-.11s-.42-.18-.58-.32c-.16-.14-.29-.32-.38-.53s-.13-.46-.13-.74c0-.24,.06-.47,.19-.7s.33-.44,.62-.62c.29-.19,.67-.34,1.15-.46s1.08-.18,1.79-.18v-.37c0-.42-.09-.74-.27-.94-.18-.2-.43-.3-.77-.3-.24,0-.45,.03-.61,.09s-.3,.12-.42,.19-.23,.14-.33,.19c-.1,.06-.21,.09-.34,.09-.1,0-.19-.03-.26-.08s-.13-.12-.18-.2l-.27-.48c.72-.66,1.59-.99,2.61-.99,.37,0,.69,.06,.98,.18s.53,.29,.73,.5c.2,.21,.35,.47,.45,.77,.1,.3,.16,.62,.16,.98v3.94Zm-2.94-.94c.15,0,.3-.01,.43-.04s.25-.07,.37-.13,.23-.12,.34-.21c.11-.08,.22-.18,.33-.29v-1.05c-.44,0-.81,.03-1.1,.08-.3,.06-.53,.13-.71,.21-.18,.09-.31,.19-.38,.3s-.11,.24-.11,.38c0,.27,.08,.46,.23,.57,.16,.11,.36,.17,.61,.17h-.01Z"/><path class="e" d="M542.57,32.58c-.2,0-.32-.09-.38-.27l-.12-.6c-.13,.15-.27,.28-.41,.4-.14,.12-.3,.22-.46,.31s-.34,.15-.53,.2-.39,.07-.61,.07c-.34,0-.66-.07-.94-.21s-.53-.35-.74-.62c-.21-.27-.36-.61-.48-1-.11-.4-.17-.86-.17-1.37,0-.46,.06-.9,.19-1.29,.13-.4,.31-.75,.54-1.04s.52-.52,.85-.69c.33-.16,.7-.25,1.11-.25,.35,0,.65,.06,.9,.17s.47,.26,.67,.45v-3.31h1.51v9.08h-.92v-.03Zm-2.02-1.11c.31,0,.58-.06,.8-.2,.22-.13,.43-.31,.62-.56v-2.81c-.17-.21-.36-.35-.56-.44-.2-.09-.42-.13-.65-.13s-.43,.04-.62,.13-.34,.21-.47,.39-.23,.39-.3,.66c-.07,.27-.1,.58-.1,.94s.03,.68,.09,.93,.14,.46,.25,.62,.24,.28,.4,.35c.16,.07,.34,.11,.53,.11h0Z"/><path class="e" d="M547.8,26.21c.47,0,.89,.08,1.27,.23s.71,.36,.97,.64c.27,.28,.48,.62,.62,1.01s.22,.84,.22,1.34-.07,.94-.22,1.34c-.15,.4-.35,.74-.62,1.02s-.59,.5-.97,.65c-.38,.15-.81,.23-1.27,.23s-.89-.08-1.28-.23c-.38-.15-.71-.37-.98-.65s-.48-.62-.63-1.02c-.15-.4-.22-.85-.22-1.34s.07-.94,.22-1.34c.15-.4,.36-.74,.63-1.01s.6-.49,.98-.64,.81-.23,1.28-.23Zm0,5.3c.52,0,.91-.17,1.16-.53,.25-.35,.38-.86,.38-1.54s-.12-1.19-.38-1.54c-.25-.35-.64-.53-1.16-.53s-.92,.18-1.17,.53c-.25,.36-.38,.87-.38,1.54s.13,1.18,.38,1.54c.25,.35,.64,.53,1.17,.53Z"/><path class="e" d="M552.07,32.58v-6.27h.88c.16,0,.26,.03,.32,.08,.06,.06,.1,.16,.12,.29l.09,.76c.22-.39,.49-.69,.79-.92,.3-.22,.64-.34,1.01-.34,.31,0,.57,.07,.77,.21l-.2,1.13c-.01,.07-.04,.12-.08,.16-.04,.03-.1,.05-.16,.05s-.15-.01-.25-.04c-.11-.03-.25-.04-.42-.04-.31,0-.58,.09-.81,.26-.22,.17-.41,.43-.57,.76v3.9h-1.49Z"/><path class="e" d="M556.7,31.75c0-.13,.02-.25,.07-.36s.11-.21,.2-.29c.08-.08,.18-.15,.3-.2s.24-.07,.37-.07,.25,.02,.36,.07,.21,.12,.29,.2c.08,.08,.15,.18,.2,.29s.07,.23,.07,.36-.02,.25-.07,.36-.11,.21-.2,.29c-.08,.08-.18,.15-.29,.19s-.23,.07-.36,.07-.25-.02-.37-.07-.21-.11-.3-.19c-.08-.08-.15-.18-.2-.29s-.07-.23-.07-.36Z"/><path class="e" d="M564.21,27.64c-.04,.06-.09,.1-.13,.13s-.1,.05-.19,.05-.15-.02-.23-.07-.16-.1-.26-.16-.22-.11-.36-.16-.31-.07-.52-.07c-.26,0-.5,.05-.7,.14-.2,.1-.37,.23-.5,.41s-.23,.4-.3,.65c-.06,.25-.1,.54-.1,.87s.04,.63,.11,.89,.17,.48,.31,.66c.13,.18,.3,.31,.49,.4s.41,.14,.65,.14,.43-.03,.58-.09,.27-.12,.38-.2c.1-.07,.19-.14,.27-.2s.16-.09,.25-.09c.12,0,.21,.05,.28,.14l.43,.55c-.17,.2-.35,.36-.54,.49s-.4,.24-.61,.32c-.21,.08-.43,.14-.65,.17-.22,.03-.45,.05-.67,.05-.39,0-.75-.07-1.09-.22-.34-.14-.64-.36-.9-.63-.25-.28-.46-.62-.6-1.02-.15-.4-.22-.86-.22-1.37,0-.46,.07-.89,.2-1.28s.33-.73,.58-1.02c.26-.29,.57-.51,.95-.67,.38-.16,.81-.24,1.31-.24,.47,0,.88,.08,1.23,.23s.67,.37,.95,.65l-.4,.55h0Z"/><path class="e" d="M568.31,26.21c.47,0,.89,.08,1.27,.23s.71,.36,.97,.64c.27,.28,.48,.62,.62,1.01s.22,.84,.22,1.34-.07,.94-.22,1.34c-.15,.4-.35,.74-.62,1.02s-.59,.5-.97,.65c-.38,.15-.81,.23-1.27,.23s-.89-.08-1.28-.23c-.38-.15-.71-.37-.98-.65s-.48-.62-.63-1.02c-.15-.4-.22-.85-.22-1.34s.07-.94,.22-1.34,.36-.74,.63-1.01,.6-.49,.98-.64,.81-.23,1.28-.23Zm0,5.3c.52,0,.91-.17,1.16-.53,.25-.35,.38-.86,.38-1.54s-.12-1.19-.38-1.54c-.25-.35-.64-.53-1.16-.53s-.92,.18-1.17,.53c-.25,.36-.38,.87-.38,1.54s.13,1.18,.38,1.54c.25,.35,.64,.53,1.17,.53Z"/><path class="e" d="M572.58,32.58v-6.27h.92c.2,0,.32,.09,.38,.27l.1,.46c.11-.12,.22-.23,.34-.34s.25-.19,.38-.26c.14-.07,.28-.13,.44-.17s.33-.06,.52-.06c.4,0,.72,.11,.97,.32s.44,.5,.57,.85c.1-.21,.22-.38,.37-.53s.31-.27,.48-.36,.36-.16,.56-.21,.4-.07,.6-.07c.35,0,.65,.05,.92,.16s.5,.26,.68,.46,.32,.45,.42,.74,.14,.63,.14,1.01v3.99h-1.51v-3.99c0-.4-.09-.7-.26-.9s-.43-.3-.77-.3c-.15,0-.3,.03-.43,.08s-.25,.13-.35,.23-.18,.22-.24,.38c-.06,.15-.09,.32-.09,.52v3.99h-1.51v-3.99c0-.42-.08-.72-.25-.92s-.42-.29-.75-.29c-.22,0-.42,.05-.61,.16s-.37,.26-.53,.44v4.59h-1.49Z"/></g><g><path class="e" d="M430.96,29.19c-.01,5.4-4.35,9.72-9.76,9.71-5.34-.01-9.66-4.38-9.65-9.74,.02-5.36,4.37-9.69,9.73-9.68,5.35,.02,9.69,4.37,9.68,9.71Zm-15.78,0c0,3.33,2.72,6.06,6.04,6.07,3.37,0,6.11-2.73,6.1-6.1,0-3.33-2.74-6.05-6.06-6.05s-6.08,2.73-6.08,6.07h0Z"/><path class="e" d="M423.56,27.58c.16,1.07,.16,2.13,0,3.21h-4.61c-.17-1.07-.16-2.13,0-3.21h4.61Z"/><path class="e" d="M423.38,26.75h-4.27c.05-.16,.09-.32,.13-.47,.2-.63,.47-1.23,.9-1.74,.7-.82,1.5-.82,2.21,0,.45,.52,.86,1.4,1.03,2.21Z"/><path class="e" d="M419.05,31.62h4.34c-.27,.96-.58,1.87-1.37,2.52-.5,.42-1.06,.4-1.57-.01-.33-.27-.59-.6-.77-.98-.22-.49-.41-.99-.64-1.53h.01Z"/><path class="e" d="M424.37,30.78c.15-1.06,.15-2.12,0-3.19,.06,0,.11-.02,.16-.02h1.56c.13,0,.18,.05,.21,.16,.27,.97,.27,1.95,0,2.92-.03,.09-.05,.16-.17,.16h-1.66s-.05-.01-.09-.02h0Z"/><path class="e" d="M418.13,27.57c-.15,1.09-.16,2.14,0,3.23h-1.73c-.12,0-.17-.04-.2-.15-.28-.98-.28-1.96,0-2.94,.02-.06,.1-.14,.15-.15,.58-.01,1.16,0,1.78,0h0Z"/><path class="e" d="M419.25,24.35c-.46,.74-.79,1.53-.98,2.4h-1.68c.61-1.12,1.49-1.92,2.66-2.4Z"/><path class="e" d="M425.88,26.75h-1.66c-.19-.86-.52-1.66-1.01-2.41,.86,.18,2.31,1.49,2.67,2.41Z"/><path class="e" d="M423.26,34.02c.19-.38,.41-.76,.58-1.16,.17-.4,.28-.81,.42-1.24h1.61c-.15,.74-1.77,2.21-2.61,2.4Z"/><path class="e" d="M418.28,31.63c.18,.85,.51,1.65,.98,2.4-1.17-.47-2.04-1.27-2.66-2.4h1.68Z"/></g><g><path class="e" d="M199.47,70.25h-.92c-.11,0-.19-.03-.26-.08-.06-.05-.11-.12-.15-.2l-.82-2.11h-3.93l-.82,2.11c-.03,.07-.08,.14-.15,.2-.07,.06-.15,.08-.26,.08h-.92l3.5-8.75h1.2l3.5,8.75h.03Zm-5.73-3.25h3.27l-1.37-3.56c-.09-.22-.18-.5-.26-.83-.04,.17-.09,.32-.13,.46-.04,.14-.08,.26-.12,.37l-1.37,3.55h-.02Z"/><path class="e" d="M201.62,61.25v9h-1.09v-9h1.09Z"/><path class="e" d="M208.08,70.25h-.48c-.11,0-.19-.02-.26-.05s-.11-.1-.13-.21l-.12-.57c-.16,.15-.32,.28-.48,.39-.15,.12-.32,.21-.49,.29s-.35,.14-.55,.18c-.19,.04-.41,.06-.64,.06s-.47-.03-.68-.1c-.21-.07-.39-.17-.55-.3s-.28-.31-.37-.51c-.09-.21-.14-.45-.14-.73,0-.25,.07-.48,.2-.71,.13-.23,.35-.43,.65-.6s.69-.32,1.18-.43c.48-.11,1.08-.17,1.78-.17v-.49c0-.48-.1-.85-.31-1.1s-.51-.37-.91-.37c-.26,0-.49,.03-.67,.1s-.34,.14-.47,.23-.25,.16-.34,.23c-.1,.07-.19,.1-.28,.1-.07,0-.14-.02-.19-.06-.06-.04-.1-.09-.13-.14l-.2-.35c.34-.33,.71-.58,1.11-.74,.39-.16,.83-.24,1.31-.24,.35,0,.65,.06,.92,.17s.49,.27,.68,.48c.18,.2,.32,.45,.42,.74s.14,.61,.14,.95v3.96h0Zm-2.82-.67c.19,0,.37-.02,.52-.06,.16-.04,.31-.09,.45-.17,.14-.07,.27-.16,.4-.26,.13-.1,.25-.22,.38-.35v-1.28c-.5,0-.93,.03-1.28,.09s-.64,.15-.85,.25c-.22,.1-.38,.22-.48,.36s-.15,.29-.15,.47,.03,.31,.08,.42c.05,.12,.12,.22,.21,.29s.2,.13,.32,.17c.12,.04,.25,.05,.4,.05v.02Z"/><path class="e" d="M209.73,70.25v-6.19h.65c.15,0,.25,.07,.29,.23l.08,.64c.23-.28,.48-.51,.77-.69,.28-.18,.61-.27,.99-.27,.42,0,.76,.12,1.02,.35,.26,.23,.44,.54,.56,.94,.09-.22,.2-.42,.34-.58s.3-.3,.47-.4c.17-.11,.36-.18,.56-.23s.4-.07,.6-.07c.33,0,.62,.05,.87,.16,.25,.1,.47,.25,.65,.46,.18,.2,.31,.44,.41,.74,.09,.29,.14,.62,.14,1v3.94h-1.09v-3.94c0-.48-.11-.85-.32-1.1s-.52-.38-.92-.38c-.18,0-.35,.03-.51,.09-.16,.06-.3,.16-.42,.28s-.22,.28-.29,.46c-.07,.19-.11,.4-.11,.64v3.94h-1.09v-3.94c0-.5-.1-.87-.3-1.11-.2-.25-.49-.37-.87-.37-.27,0-.52,.07-.75,.22s-.44,.34-.63,.59v4.61h-1.09v-.02Z"/><path class="e" d="M222.21,63.97c.37,0,.71,.06,1.03,.19,.31,.12,.58,.3,.81,.54,.23,.23,.41,.52,.53,.87,.13,.34,.19,.74,.19,1.18,0,.17-.02,.29-.06,.34-.04,.06-.11,.08-.21,.08h-4.12c0,.39,.06,.73,.16,1.02s.23,.53,.4,.72,.37,.34,.61,.43c.24,.1,.5,.14,.79,.14,.27,0,.51-.03,.71-.09,.2-.06,.37-.13,.51-.21,.14-.07,.26-.14,.36-.2s.18-.09,.25-.09c.09,0,.16,.04,.21,.1l.31,.4c-.13,.16-.3,.3-.48,.42-.19,.12-.39,.22-.6,.3s-.43,.14-.66,.17-.45,.06-.68,.06c-.43,0-.82-.07-1.18-.22s-.67-.36-.93-.63-.47-.62-.61-1.04-.22-.88-.22-1.42c0-.43,.07-.83,.2-1.21,.13-.37,.32-.7,.57-.97,.25-.27,.55-.49,.91-.65s.76-.23,1.21-.23h-.01Zm.02,.8c-.53,0-.94,.15-1.24,.46-.3,.3-.49,.72-.56,1.26h3.37c0-.25-.03-.48-.1-.69s-.17-.39-.31-.54-.3-.27-.49-.35-.41-.13-.66-.13h0Z"/><path class="e" d="M230.51,70.25c-.15,0-.25-.08-.29-.23l-.1-.75c-.26,.32-.57,.58-.91,.77-.34,.19-.73,.29-1.17,.29-.35,0-.68-.07-.96-.2s-.54-.34-.74-.6-.36-.59-.47-.99-.16-.85-.16-1.36c0-.46,.06-.88,.18-1.27s.3-.73,.53-1.02,.51-.52,.84-.68,.7-.25,1.12-.25c.38,0,.7,.06,.97,.19,.27,.13,.51,.31,.72,.54v-3.43h1.09v9h-.65Zm-2.11-.8c.35,0,.67-.08,.93-.24,.27-.16,.51-.39,.74-.69v-2.99c-.2-.27-.42-.46-.66-.56-.24-.11-.5-.16-.79-.16-.58,0-1.02,.21-1.33,.62s-.46,1-.46,1.76c0,.4,.03,.75,.1,1.04s.17,.52,.31,.71c.13,.19,.3,.32,.49,.41,.2,.09,.42,.13,.67,.13v-.03Z"/><path class="e" d="M237.53,70.25h-.48c-.11,0-.19-.02-.26-.05s-.11-.1-.13-.21l-.12-.57c-.16,.15-.32,.28-.48,.39-.15,.12-.32,.21-.49,.29s-.35,.14-.55,.18c-.19,.04-.41,.06-.64,.06s-.47-.03-.68-.1c-.21-.07-.39-.17-.55-.3s-.28-.31-.37-.51c-.09-.21-.14-.45-.14-.73,0-.25,.07-.48,.2-.71,.13-.23,.35-.43,.65-.6s.69-.32,1.18-.43c.48-.11,1.08-.17,1.78-.17v-.49c0-.48-.1-.85-.31-1.1s-.51-.37-.91-.37c-.26,0-.49,.03-.67,.1s-.34,.14-.47,.23-.25,.16-.34,.23c-.1,.07-.19,.1-.28,.1-.07,0-.14-.02-.19-.06-.06-.04-.1-.09-.13-.14l-.2-.35c.34-.33,.71-.58,1.11-.74,.39-.16,.83-.24,1.31-.24,.35,0,.65,.06,.92,.17s.49,.27,.68,.48c.18,.2,.32,.45,.42,.74s.14,.61,.14,.95v3.96h0Zm-2.82-.67c.19,0,.37-.02,.52-.06,.16-.04,.31-.09,.45-.17,.14-.07,.27-.16,.4-.26,.13-.1,.25-.22,.38-.35v-1.28c-.5,0-.93,.03-1.28,.09s-.64,.15-.85,.25c-.22,.1-.38,.22-.48,.36s-.15,.29-.15,.47,.03,.31,.08,.42c.05,.12,.12,.22,.21,.29s.2,.13,.32,.17c.12,.04,.25,.05,.4,.05v.02Z"/><path class="e" d="M247.1,61.5v.97h-4.2v3.06h3.59v.96h-3.59v3.76h-1.19v-8.75h5.39Z"/><path class="e" d="M248.45,70.25v-6.19h.62c.12,0,.2,.02,.24,.07,.04,.04,.08,.12,.09,.23l.07,.96c.21-.43,.47-.77,.78-1.01,.31-.24,.68-.36,1.1-.36,.17,0,.33,.02,.46,.06,.14,.04,.27,.09,.38,.16l-.14,.81c-.03,.1-.09,.15-.19,.15-.06,0-.14-.02-.26-.06s-.28-.06-.49-.06c-.38,0-.7,.11-.95,.33s-.47,.54-.64,.96v3.94h-1.07Z"/><path class="e" d="M257.92,70.25h-.48c-.11,0-.19-.02-.26-.05s-.11-.1-.13-.21l-.12-.57c-.16,.15-.32,.28-.48,.39-.15,.12-.32,.21-.49,.29s-.35,.14-.55,.18c-.19,.04-.41,.06-.64,.06s-.47-.03-.68-.1c-.21-.07-.39-.17-.55-.3s-.28-.31-.37-.51c-.09-.21-.14-.45-.14-.73,0-.25,.07-.48,.2-.71,.13-.23,.35-.43,.65-.6s.69-.32,1.18-.43c.48-.11,1.08-.17,1.78-.17v-.49c0-.48-.1-.85-.31-1.1s-.51-.37-.91-.37c-.26,0-.49,.03-.67,.1s-.34,.14-.47,.23-.25,.16-.34,.23c-.1,.07-.19,.1-.28,.1-.07,0-.14-.02-.19-.06-.06-.04-.1-.09-.13-.14l-.2-.35c.34-.33,.71-.58,1.11-.74,.39-.16,.83-.24,1.31-.24,.35,0,.65,.06,.92,.17s.49,.27,.68,.48c.18,.2,.32,.45,.42,.74s.14,.61,.14,.95v3.96h0Zm-2.83-.67c.19,0,.37-.02,.52-.06,.16-.04,.31-.09,.45-.17,.14-.07,.27-.16,.4-.26s.25-.22,.38-.35v-1.28c-.5,0-.93,.03-1.28,.09s-.64,.15-.85,.25c-.22,.1-.38,.22-.48,.36s-.15,.29-.15,.47,.03,.31,.08,.42c.05,.12,.12,.22,.21,.29s.2,.13,.32,.17c.12,.04,.25,.05,.4,.05v.02Z"/><path class="e" d="M259.56,70.25v-6.19h.65c.15,0,.25,.07,.29,.23l.09,.67c.27-.3,.57-.54,.9-.72s.72-.27,1.15-.27c.34,0,.64,.06,.9,.17,.26,.11,.47,.27,.65,.48,.17,.21,.3,.45,.39,.74,.09,.29,.13,.61,.13,.96v3.94h-1.09v-3.94c0-.47-.11-.83-.32-1.09-.21-.26-.54-.39-.98-.39-.32,0-.62,.08-.9,.23-.28,.16-.54,.36-.77,.63v4.56h-1.09Z"/><path class="e" d="M267.49,61.25v5.3h.28c.08,0,.15-.01,.2-.03,.05-.02,.11-.07,.18-.14l1.95-2.1c.06-.06,.12-.12,.18-.16s.14-.06,.24-.06h.99l-2.28,2.42c-.06,.07-.11,.13-.17,.18-.05,.05-.12,.1-.19,.14,.07,.05,.14,.11,.2,.17s.12,.13,.17,.22l2.42,3.05h-.98c-.09,0-.17-.02-.23-.05s-.12-.09-.18-.16l-2.03-2.54c-.06-.08-.12-.14-.18-.17s-.15-.04-.27-.04h-.31v2.96h-1.09v-9h1.1Z"/><path class="e" d="M273.97,61.25v9h-1.09v-9h1.09Z"/><path class="e" d="M277.34,62.12c0,.11-.02,.21-.06,.3-.04,.09-.1,.17-.17,.24s-.15,.13-.25,.17-.19,.06-.3,.06-.2-.02-.3-.06c-.09-.04-.17-.1-.24-.17s-.13-.15-.17-.24-.06-.19-.06-.3,.02-.21,.06-.3,.1-.18,.17-.25,.15-.13,.24-.17,.19-.06,.3-.06,.21,.02,.3,.06,.18,.1,.25,.17,.13,.16,.17,.25c.04,.1,.06,.2,.06,.3Zm-.25,1.94v6.19h-1.09v-6.19h1.09Z"/><path class="e" d="M279.01,70.25v-6.19h.65c.15,0,.25,.07,.29,.23l.09,.67c.27-.3,.57-.54,.9-.72s.72-.27,1.15-.27c.34,0,.64,.06,.9,.17,.26,.11,.47,.27,.65,.48,.17,.21,.3,.45,.39,.74,.09,.29,.13,.61,.13,.96v3.94h-1.09v-3.94c0-.47-.11-.83-.32-1.09-.21-.26-.54-.39-.98-.39-.32,0-.62,.08-.9,.23-.28,.16-.54,.36-.77,.63v4.56h-1.09Z"/><path class="e" d="M295.92,65.88c0,.66-.1,1.25-.31,1.79s-.5,1-.88,1.38-.83,.68-1.36,.89-1.12,.31-1.76,.31h-3.27v-8.75h3.27c.64,0,1.23,.11,1.76,.32s.98,.51,1.36,.89c.38,.38,.67,.85,.88,1.38,.21,.54,.31,1.13,.31,1.79Zm-1.22,0c0-.54-.07-1.02-.22-1.44-.15-.42-.35-.78-.62-1.08-.27-.29-.59-.52-.98-.67-.38-.15-.81-.23-1.28-.23h-2.08v6.83h2.08c.47,0,.89-.08,1.28-.23,.38-.16,.71-.38,.98-.67,.27-.29,.48-.65,.62-1.07,.15-.42,.22-.9,.22-1.44Z"/><path class="e" d="M299.81,63.97c.37,0,.71,.06,1.03,.19,.31,.12,.58,.3,.81,.54,.23,.23,.41,.52,.53,.87,.13,.34,.19,.74,.19,1.18,0,.17-.02,.29-.06,.34-.04,.06-.11,.08-.21,.08h-4.12c0,.39,.06,.73,.16,1.02s.23,.53,.4,.72,.37,.34,.61,.43c.24,.1,.5,.14,.79,.14,.27,0,.51-.03,.71-.09,.2-.06,.37-.13,.51-.21,.14-.07,.26-.14,.36-.2,.1-.06,.18-.09,.25-.09,.09,0,.16,.04,.21,.1l.31,.4c-.13,.16-.3,.3-.48,.42-.19,.12-.39,.22-.6,.3s-.43,.14-.66,.17-.45,.06-.68,.06c-.43,0-.82-.07-1.18-.22s-.67-.36-.93-.63-.47-.62-.61-1.04-.22-.88-.22-1.42c0-.43,.07-.83,.2-1.21,.13-.37,.32-.7,.57-.97,.25-.27,.55-.49,.91-.65,.36-.16,.76-.23,1.21-.23h-.01Zm.02,.8c-.53,0-.94,.15-1.24,.46-.3,.3-.49,.72-.56,1.26h3.37c0-.25-.03-.48-.1-.69s-.17-.39-.31-.54-.3-.27-.49-.35-.41-.13-.66-.13h-.01Z"/><path class="e" d="M304.97,61.25v9h-1.09v-9h1.09Z"/><path class="e" d="M311.43,70.25h-.48c-.11,0-.19-.02-.26-.05s-.11-.1-.13-.21l-.12-.57c-.16,.15-.32,.28-.48,.39-.15,.12-.32,.21-.49,.29s-.35,.14-.55,.18c-.19,.04-.41,.06-.64,.06s-.47-.03-.68-.1-.39-.17-.55-.3-.28-.31-.37-.51c-.09-.21-.14-.45-.14-.73,0-.25,.07-.48,.2-.71,.13-.23,.35-.43,.65-.6s.69-.32,1.18-.43c.48-.11,1.08-.17,1.78-.17v-.49c0-.48-.1-.85-.31-1.1s-.51-.37-.91-.37c-.26,0-.49,.03-.67,.1-.18,.07-.34,.14-.47,.23s-.25,.16-.34,.23c-.1,.07-.19,.1-.28,.1-.07,0-.14-.02-.19-.06-.06-.04-.1-.09-.13-.14l-.2-.35c.34-.33,.71-.58,1.11-.74,.39-.16,.83-.24,1.31-.24,.35,0,.65,.06,.92,.17,.27,.11,.49,.27,.68,.48,.18,.2,.32,.45,.42,.74s.14,.61,.14,.95v3.96h0Zm-2.82-.67c.19,0,.37-.02,.52-.06,.16-.04,.31-.09,.45-.17,.14-.07,.27-.16,.4-.26s.25-.22,.38-.35v-1.28c-.5,0-.93,.03-1.28,.09s-.64,.15-.85,.25c-.22,.1-.38,.22-.48,.36s-.15,.29-.15,.47,.03,.31,.08,.42c.05,.12,.12,.22,.21,.29s.2,.13,.32,.17,.25,.05,.4,.05v.02Z"/><path class="e" d="M313.08,70.25v-6.19h.65c.15,0,.25,.07,.29,.23l.09,.67c.27-.3,.57-.54,.9-.72s.72-.27,1.15-.27c.34,0,.64,.06,.9,.17,.26,.11,.47,.27,.65,.48,.17,.21,.3,.45,.39,.74,.09,.29,.13,.61,.13,.96v3.94h-1.09v-3.94c0-.47-.11-.83-.32-1.09-.21-.26-.54-.39-.98-.39-.32,0-.62,.08-.9,.23-.28,.16-.54,.36-.77,.63v4.56h-1.09Z"/><path class="e" d="M322.38,63.97c.45,0,.86,.07,1.22,.23,.36,.15,.67,.36,.93,.64,.25,.28,.45,.61,.59,1,.14,.39,.2,.83,.2,1.32s-.07,.93-.2,1.32c-.14,.39-.33,.72-.59,1-.25,.28-.56,.49-.93,.64-.36,.15-.77,.22-1.22,.22s-.86-.07-1.22-.22c-.36-.15-.67-.36-.93-.64-.26-.28-.45-.61-.59-1-.14-.39-.21-.83-.21-1.32s.07-.92,.21-1.32c.14-.39,.34-.73,.59-1,.26-.28,.57-.49,.93-.64s.77-.23,1.22-.23Zm0,5.52c.61,0,1.07-.2,1.37-.61s.45-.98,.45-1.71-.15-1.31-.45-1.72c-.3-.41-.76-.62-1.37-.62-.31,0-.58,.05-.81,.16s-.42,.26-.57,.46-.27,.45-.34,.74c-.08,.29-.11,.62-.11,.99s.04,.7,.11,.98c.08,.29,.19,.53,.34,.73,.15,.2,.34,.35,.57,.46s.5,.16,.81,.16v-.02Z"/><path class="e" d="M330.49,66.6v3.65h-1.18v-8.75h2.47c.55,0,1.03,.06,1.44,.17,.4,.11,.74,.27,1,.49,.26,.21,.46,.47,.58,.77,.12,.3,.19,.63,.19,1,0,.31-.05,.6-.15,.87-.1,.27-.24,.51-.43,.72s-.41,.4-.68,.55-.57,.27-.91,.34c.15,.08,.28,.21,.39,.37l2.55,3.48h-1.05c-.21,0-.38-.08-.48-.25l-2.27-3.13c-.07-.1-.14-.17-.23-.21-.08-.04-.2-.06-.37-.06h-.87Zm0-.87h1.24c.35,0,.65-.04,.91-.12s.48-.2,.66-.35,.31-.33,.4-.55c.09-.21,.13-.45,.13-.7,0-.52-.17-.91-.52-1.18-.34-.26-.86-.4-1.54-.4h-1.29v3.3h.01Z"/><path class="e" d="M339.39,63.97c.45,0,.86,.07,1.22,.23,.36,.15,.67,.36,.93,.64,.25,.28,.45,.61,.59,1,.14,.39,.21,.83,.21,1.32s-.07,.93-.21,1.32c-.14,.39-.33,.72-.59,1-.25,.28-.56,.49-.93,.64s-.77,.22-1.22,.22-.86-.07-1.22-.22-.67-.36-.93-.64c-.26-.28-.45-.61-.59-1-.14-.39-.21-.83-.21-1.32s.07-.92,.21-1.32,.34-.73,.59-1c.26-.28,.57-.49,.93-.64s.77-.23,1.22-.23Zm0,5.52c.61,0,1.07-.2,1.37-.61s.45-.98,.45-1.71-.15-1.31-.45-1.72c-.3-.41-.76-.62-1.37-.62-.31,0-.58,.05-.81,.16s-.42,.26-.57,.46-.27,.45-.34,.74-.11,.62-.11,.99,.04,.7,.11,.98,.19,.53,.34,.73c.15,.2,.34,.35,.57,.46s.5,.16,.81,.16v-.02Z"/><path class="e" d="M346.18,63.97c.45,0,.86,.07,1.22,.23,.36,.15,.67,.36,.93,.64,.25,.28,.45,.61,.59,1,.14,.39,.21,.83,.21,1.32s-.07,.93-.21,1.32c-.14,.39-.33,.72-.59,1-.25,.28-.56,.49-.93,.64s-.77,.22-1.22,.22-.86-.07-1.22-.22-.67-.36-.93-.64c-.26-.28-.45-.61-.59-1-.14-.39-.21-.83-.21-1.32s.07-.92,.21-1.32,.34-.73,.59-1c.26-.28,.57-.49,.93-.64s.77-.23,1.22-.23Zm0,5.52c.61,0,1.07-.2,1.37-.61s.45-.98,.45-1.71-.15-1.31-.45-1.72c-.3-.41-.76-.62-1.37-.62-.31,0-.58,.05-.81,.16s-.42,.26-.57,.46-.27,.45-.34,.74-.11,.62-.11,.99,.04,.7,.11,.98,.19,.53,.34,.73c.15,.2,.34,.35,.57,.46s.5,.16,.81,.16v-.02Z"/><path class="e" d="M354.01,65.08c-.05,.09-.12,.13-.23,.13-.06,0-.13-.02-.21-.07-.08-.04-.17-.09-.28-.15-.11-.06-.25-.11-.4-.15-.15-.05-.34-.07-.55-.07-.18,0-.35,.02-.49,.07-.15,.05-.27,.11-.38,.19-.1,.08-.18,.18-.24,.28s-.08,.23-.08,.35c0,.16,.04,.29,.14,.4s.21,.2,.36,.27c.15,.08,.32,.15,.51,.21s.39,.12,.59,.19c.2,.07,.4,.14,.59,.22s.36,.18,.51,.31,.27,.27,.36,.45,.14,.39,.14,.64c0,.29-.05,.55-.15,.79s-.25,.45-.45,.63-.44,.32-.73,.42-.62,.15-1,.15c-.43,0-.82-.07-1.17-.21s-.65-.32-.89-.54l.26-.42c.03-.05,.07-.09,.12-.12,.04-.03,.1-.04,.18-.04s.15,.03,.23,.08c.08,.06,.18,.12,.3,.19s.26,.13,.42,.19,.37,.08,.62,.08c.21,0,.4-.03,.56-.08s.29-.13,.4-.22c.11-.09,.18-.2,.23-.32,.05-.12,.08-.25,.08-.39,0-.17-.05-.31-.14-.42-.09-.11-.21-.21-.36-.29s-.32-.15-.52-.21-.39-.12-.59-.19c-.2-.06-.4-.14-.59-.22s-.37-.19-.52-.31c-.15-.13-.27-.28-.36-.47-.09-.18-.14-.41-.14-.67,0-.24,.05-.46,.15-.68s.24-.41,.43-.57c.19-.17,.42-.3,.69-.39,.27-.1,.58-.15,.93-.15,.41,0,.77,.06,1.1,.19,.32,.13,.6,.3,.84,.53l-.24,.4h-.03Z"/><path class="e" d="M358.22,63.97c.37,0,.71,.06,1.03,.19,.31,.12,.58,.3,.81,.54,.23,.23,.41,.52,.53,.87,.13,.34,.19,.74,.19,1.18,0,.17-.02,.29-.05,.34-.04,.06-.11,.08-.21,.08h-4.12c0,.39,.06,.73,.16,1.02s.23,.53,.4,.72,.38,.34,.61,.43c.24,.1,.5,.14,.79,.14,.27,0,.51-.03,.71-.09,.2-.06,.37-.13,.51-.21,.14-.07,.26-.14,.36-.2s.18-.09,.25-.09c.09,0,.16,.04,.21,.1l.31,.4c-.13,.16-.3,.3-.48,.42-.19,.12-.39,.22-.6,.3s-.43,.14-.66,.17c-.23,.04-.45,.06-.68,.06-.43,0-.82-.07-1.18-.22s-.67-.36-.93-.63c-.26-.28-.47-.62-.61-1.04s-.22-.88-.22-1.42c0-.43,.07-.83,.2-1.21,.13-.37,.32-.7,.57-.97,.25-.27,.55-.49,.91-.65s.76-.23,1.21-.23h-.02Zm.03,.8c-.53,0-.94,.15-1.24,.46-.3,.3-.49,.72-.56,1.26h3.37c0-.25-.03-.48-.1-.69s-.17-.39-.31-.54c-.13-.15-.3-.27-.49-.35s-.42-.13-.66-.13h-.01Z"/><path class="e" d="M361.39,64.06h.89c.08,0,.16,.02,.21,.07,.06,.04,.1,.1,.12,.16l1.57,3.98c.06,.15,.1,.29,.13,.44s.06,.29,.09,.43c.03-.14,.07-.29,.1-.43,.04-.15,.08-.29,.14-.44l1.59-3.98c.02-.07,.06-.12,.12-.16,.05-.04,.12-.06,.2-.06h.85l-2.52,6.19h-.98l-2.52-6.19h0Z"/><path class="e" d="M370.88,63.97c.37,0,.71,.06,1.03,.19,.31,.12,.58,.3,.81,.54,.23,.23,.41,.52,.53,.87,.13,.34,.19,.74,.19,1.18,0,.17-.02,.29-.05,.34-.04,.06-.11,.08-.21,.08h-4.12c0,.39,.06,.73,.16,1.02s.23,.53,.4,.72,.38,.34,.61,.43c.24,.1,.5,.14,.79,.14,.27,0,.51-.03,.71-.09,.2-.06,.37-.13,.51-.21,.14-.07,.26-.14,.36-.2s.18-.09,.25-.09c.09,0,.16,.04,.21,.1l.31,.4c-.13,.16-.3,.3-.48,.42-.19,.12-.39,.22-.6,.3s-.43,.14-.66,.17c-.23,.04-.45,.06-.68,.06-.43,0-.82-.07-1.18-.22s-.67-.36-.93-.63c-.26-.28-.47-.62-.61-1.04s-.22-.88-.22-1.42c0-.43,.07-.83,.2-1.21,.13-.37,.32-.7,.57-.97,.25-.27,.55-.49,.91-.65s.76-.23,1.21-.23h-.02Zm.02,.8c-.53,0-.94,.15-1.24,.46-.3,.3-.49,.72-.56,1.26h3.37c0-.25-.03-.48-.1-.69s-.17-.39-.31-.54c-.13-.15-.3-.27-.49-.35s-.42-.13-.66-.13h-.01Z"/><path class="e" d="M376.04,61.25v9h-1.09v-9h1.09Z"/><path class="e" d="M379.83,70.35c-.49,0-.86-.14-1.13-.41s-.39-.67-.39-1.18v-3.79h-.75c-.07,0-.12-.02-.17-.06s-.07-.1-.07-.18v-.43l1.01-.13,.25-1.91c0-.06,.03-.11,.08-.15,.04-.04,.1-.06,.17-.06h.55v2.13h1.77v.79h-1.77v3.71c0,.26,.06,.45,.19,.58,.13,.13,.29,.19,.49,.19,.11,0,.21-.02,.3-.05,.08-.03,.16-.06,.22-.1s.11-.07,.16-.1c.04-.03,.08-.04,.11-.04,.06,0,.11,.03,.15,.1l.32,.52c-.19,.17-.41,.31-.68,.41s-.54,.15-.82,.15h.01Z"/><path class="e" d="M387.65,61.4c.37,0,.72,.06,1.04,.17s.6,.27,.83,.48c.23,.21,.42,.47,.55,.77,.13,.3,.2,.64,.2,1.03,0,.33-.05,.63-.15,.9s-.23,.54-.4,.8-.36,.5-.58,.74-.45,.48-.69,.73l-2.3,2.36c.16-.04,.33-.08,.49-.11,.17-.03,.33-.04,.48-.04h2.93c.12,0,.21,.04,.28,.1,.07,.07,.1,.16,.1,.27v.66h-5.84v-.37c0-.08,.02-.16,.05-.24,.03-.08,.08-.16,.15-.23l2.8-2.82c.23-.24,.44-.46,.64-.68,.19-.22,.35-.44,.49-.66,.14-.22,.24-.44,.31-.67,.07-.23,.11-.47,.11-.72s-.04-.48-.12-.68c-.08-.19-.19-.35-.34-.48-.14-.13-.31-.22-.5-.29-.19-.06-.4-.09-.62-.09s-.42,.03-.61,.1c-.19,.06-.35,.16-.5,.27-.14,.12-.27,.25-.37,.41s-.17,.33-.21,.53c-.03,.12-.08,.2-.15,.26-.07,.05-.15,.08-.26,.08h-.14l-.57-.1c.06-.4,.17-.75,.33-1.06,.16-.31,.37-.56,.62-.77s.54-.37,.86-.47c.32-.11,.67-.16,1.05-.16l.04-.02Z"/><path class="e" d="M392.81,69.42h1.88v-5.97c0-.18,0-.36,.02-.54l-1.56,1.34s-.08,.06-.12,.07-.08,.02-.12,.02c-.06,0-.12-.01-.17-.04-.05-.03-.08-.06-.11-.09l-.34-.47,2.6-2.25h.89v7.94h1.72v.83h-4.69v-.83h0Z"/><path class="e" d="M399.9,69.42h1.88v-5.97c0-.18,0-.36,.02-.54l-1.56,1.34s-.08,.06-.12,.07-.08,.02-.12,.02c-.06,0-.12-.01-.17-.04-.05-.03-.08-.06-.11-.09l-.34-.47,2.6-2.25h.89v7.94h1.72v.83h-4.69v-.83h0Z"/><path class="e" d="M411.85,61.5v.49c0,.14-.02,.25-.05,.34s-.06,.16-.09,.22l-3.62,7.31c-.05,.11-.13,.2-.22,.27s-.22,.11-.38,.11h-.78l3.68-7.22c.05-.1,.11-.2,.16-.28,.05-.08,.12-.17,.19-.25h-4.57c-.07,0-.13-.03-.19-.08-.05-.05-.08-.12-.08-.19v-.74h5.95v.02Z"/><path class="e" d="M412.89,69.5c0-.09,.02-.18,.05-.27,.03-.08,.08-.16,.15-.22,.06-.06,.14-.11,.23-.15s.19-.06,.29-.06c.12,0,.23,.02,.33,.07s.18,.11,.24,.19,.11,.17,.14,.28c.03,.1,.05,.22,.05,.34,0,.18-.03,.37-.08,.57s-.13,.39-.23,.59-.22,.38-.36,.57c-.14,.18-.31,.35-.49,.51l-.18-.18c-.05-.05-.08-.11-.08-.17,0-.05,.03-.11,.09-.17,.04-.04,.09-.1,.16-.18,.06-.08,.13-.16,.19-.26s.12-.21,.18-.32c.05-.12,.09-.25,.12-.38h-.08c-.11,0-.2-.02-.29-.06-.08-.04-.16-.09-.22-.16s-.11-.15-.15-.24c-.03-.09-.05-.19-.05-.3h-.01Z"/><path class="e" d="M422.81,62.87c-.04,.06-.08,.11-.12,.14s-.09,.05-.16,.05-.15-.04-.24-.1c-.09-.07-.21-.15-.35-.23s-.31-.16-.51-.23-.44-.1-.72-.1c-.26,0-.5,.04-.7,.11s-.37,.17-.51,.29-.24,.27-.31,.43c-.07,.17-.1,.34-.1,.53,0,.24,.06,.45,.18,.61s.28,.3,.48,.41c.2,.12,.42,.21,.67,.3,.25,.08,.51,.17,.77,.26s.52,.19,.77,.3,.47,.25,.67,.42,.36,.38,.48,.63,.18,.55,.18,.92-.07,.74-.2,1.08c-.13,.34-.32,.63-.57,.88s-.56,.44-.92,.59c-.37,.14-.78,.21-1.24,.21-.57,0-1.08-.1-1.55-.31s-.86-.48-1.19-.83l.34-.56s.07-.08,.12-.11,.1-.04,.16-.04c.09,0,.18,.04,.29,.14,.11,.09,.25,.19,.41,.3s.36,.21,.6,.3c.23,.09,.52,.14,.86,.14,.28,0,.53-.04,.75-.12s.41-.19,.56-.33,.27-.31,.35-.5c.08-.2,.12-.41,.12-.65,0-.27-.06-.48-.18-.65s-.28-.31-.47-.42c-.2-.11-.42-.21-.67-.29s-.51-.16-.77-.24c-.26-.08-.52-.18-.77-.29s-.47-.25-.67-.43c-.2-.17-.35-.39-.47-.66-.12-.26-.18-.59-.18-.97,0-.31,.06-.61,.18-.9s.29-.55,.52-.77c.23-.22,.51-.4,.85-.54s.72-.2,1.16-.2c.49,0,.93,.08,1.34,.23,.4,.16,.75,.38,1.06,.67l-.29,.56v-.03Z"/><path class="e" d="M429.17,70.25h-.48c-.11,0-.19-.02-.26-.05-.06-.03-.11-.1-.13-.21l-.12-.57c-.16,.15-.32,.28-.48,.39-.15,.12-.32,.21-.49,.29s-.35,.14-.55,.18c-.19,.04-.41,.06-.64,.06s-.46-.03-.67-.1c-.21-.07-.39-.17-.55-.3-.15-.13-.28-.31-.37-.51s-.14-.45-.14-.73c0-.25,.07-.48,.2-.71,.13-.23,.35-.43,.65-.6,.3-.18,.69-.32,1.18-.43,.48-.11,1.08-.17,1.78-.17v-.49c0-.48-.1-.85-.31-1.1s-.51-.37-.91-.37c-.26,0-.49,.03-.67,.1-.18,.07-.34,.14-.47,.23-.13,.08-.25,.16-.34,.23-.1,.07-.19,.1-.28,.1-.07,0-.14-.02-.19-.06s-.1-.09-.13-.14l-.2-.35c.34-.33,.71-.58,1.11-.74,.39-.16,.83-.24,1.31-.24,.35,0,.65,.06,.92,.17,.27,.11,.49,.27,.68,.48s.32,.45,.42,.74,.14,.61,.14,.95v3.96h0Zm-2.82-.67c.19,0,.37-.02,.53-.06s.31-.09,.45-.17c.14-.07,.28-.16,.4-.26,.13-.1,.25-.22,.38-.35v-1.28c-.5,0-.93,.03-1.28,.09s-.64,.15-.86,.25c-.22,.1-.38,.22-.48,.36s-.15,.29-.15,.47,.03,.31,.08,.42c.05,.12,.12,.22,.21,.29s.2,.13,.32,.17,.25,.05,.4,.05v.02Z"/><path class="e" d="M430.82,70.25v-6.19h.65c.15,0,.25,.07,.29,.23l.09,.67c.27-.3,.57-.54,.9-.72s.72-.27,1.15-.27c.34,0,.64,.06,.89,.17,.26,.11,.47,.27,.65,.48,.17,.21,.3,.45,.39,.74,.09,.29,.13,.61,.13,.96v3.94h-1.09v-3.94c0-.47-.11-.83-.32-1.09-.21-.26-.54-.39-.98-.39-.32,0-.62,.08-.9,.23-.28,.16-.54,.36-.77,.63v4.56h-1.08Z"/><path class="e" d="M444.62,62.87c-.04,.06-.08,.11-.12,.14s-.09,.05-.16,.05-.15-.04-.24-.1c-.09-.07-.21-.15-.35-.23s-.31-.16-.51-.23-.44-.1-.72-.1c-.26,0-.5,.04-.7,.11s-.37,.17-.51,.29-.24,.27-.31,.43c-.07,.17-.1,.34-.1,.53,0,.24,.06,.45,.18,.61s.28,.3,.48,.41c.2,.12,.42,.21,.67,.3,.25,.08,.51,.17,.77,.26s.52,.19,.77,.3,.47,.25,.67,.42,.36,.38,.48,.63,.18,.55,.18,.92-.07,.74-.2,1.08c-.13,.34-.32,.63-.57,.88s-.56,.44-.92,.59c-.37,.14-.78,.21-1.24,.21-.57,0-1.08-.1-1.55-.31s-.86-.48-1.19-.83l.34-.56s.07-.08,.12-.11,.1-.04,.16-.04c.09,0,.18,.04,.29,.14,.11,.09,.25,.19,.41,.3s.36,.21,.6,.3c.23,.09,.52,.14,.86,.14,.28,0,.53-.04,.75-.12s.41-.19,.56-.33,.27-.31,.35-.5c.08-.2,.12-.41,.12-.65,0-.27-.06-.48-.18-.65s-.28-.31-.47-.42c-.2-.11-.42-.21-.67-.29s-.51-.16-.77-.24c-.26-.08-.52-.18-.77-.29s-.47-.25-.67-.43c-.2-.17-.35-.39-.47-.66-.12-.26-.18-.59-.18-.97,0-.31,.06-.61,.18-.9s.29-.55,.52-.77c.23-.22,.51-.4,.85-.54s.72-.2,1.16-.2c.49,0,.93,.08,1.34,.23,.4,.16,.75,.38,1.06,.67l-.29,.56v-.03Z"/><path class="e" d="M450.99,70.25h-.48c-.11,0-.19-.02-.26-.05-.06-.03-.11-.1-.13-.21l-.12-.57c-.16,.15-.32,.28-.48,.39-.15,.12-.32,.21-.49,.29s-.35,.14-.55,.18c-.19,.04-.41,.06-.64,.06s-.46-.03-.67-.1c-.21-.07-.39-.17-.55-.3-.15-.13-.28-.31-.37-.51s-.14-.45-.14-.73c0-.25,.07-.48,.2-.71,.13-.23,.35-.43,.65-.6,.3-.18,.69-.32,1.18-.43,.48-.11,1.08-.17,1.78-.17v-.49c0-.48-.1-.85-.31-1.1s-.51-.37-.91-.37c-.26,0-.49,.03-.67,.1-.18,.07-.34,.14-.47,.23-.13,.08-.25,.16-.34,.23-.1,.07-.19,.1-.28,.1-.07,0-.14-.02-.19-.06s-.1-.09-.13-.14l-.2-.35c.34-.33,.71-.58,1.11-.74,.39-.16,.83-.24,1.31-.24,.35,0,.65,.06,.92,.17,.27,.11,.49,.27,.68,.48s.32,.45,.42,.74,.14,.61,.14,.95v3.96h0Zm-2.82-.67c.19,0,.37-.02,.53-.06s.31-.09,.45-.17c.14-.07,.28-.16,.4-.26,.13-.1,.25-.22,.38-.35v-1.28c-.5,0-.93,.03-1.28,.09s-.64,.15-.86,.25c-.22,.1-.38,.22-.48,.36s-.15,.29-.15,.47,.03,.31,.08,.42c.05,.12,.12,.22,.21,.29s.2,.13,.32,.17,.25,.05,.4,.05v.02Z"/><path class="e" d="M453.85,61.25v9h-1.09v-9h1.09Z"/><path class="e" d="M454.98,64.06h.89c.08,0,.16,.02,.21,.07,.06,.04,.1,.1,.12,.16l1.57,3.98c.06,.15,.1,.29,.13,.44s.06,.29,.09,.43c.03-.14,.07-.29,.1-.43,.04-.15,.08-.29,.14-.44l1.59-3.98c.02-.07,.06-.12,.12-.16,.05-.04,.12-.06,.2-.06h.85l-2.52,6.19h-.98l-2.52-6.19h0Z"/><path class="e" d="M466.56,70.25h-.48c-.11,0-.19-.02-.26-.05-.06-.03-.11-.1-.13-.21l-.12-.57c-.16,.15-.32,.28-.48,.39-.15,.12-.32,.21-.49,.29s-.35,.14-.55,.18c-.19,.04-.41,.06-.64,.06s-.46-.03-.67-.1c-.21-.07-.39-.17-.55-.3-.15-.13-.28-.31-.37-.51s-.14-.45-.14-.73c0-.25,.07-.48,.2-.71,.13-.23,.35-.43,.65-.6,.3-.18,.69-.32,1.18-.43,.48-.11,1.08-.17,1.78-.17v-.49c0-.48-.1-.85-.31-1.1s-.51-.37-.91-.37c-.26,0-.49,.03-.67,.1-.18,.07-.34,.14-.47,.23-.13,.08-.25,.16-.34,.23-.1,.07-.19,.1-.28,.1-.07,0-.14-.02-.19-.06s-.1-.09-.13-.14l-.2-.35c.34-.33,.71-.58,1.11-.74,.39-.16,.83-.24,1.31-.24,.35,0,.65,.06,.92,.17,.27,.11,.49,.27,.68,.48s.32,.45,.42,.74,.14,.61,.14,.95v3.96h0Zm-2.82-.67c.19,0,.37-.02,.53-.06s.31-.09,.45-.17c.14-.07,.28-.16,.4-.26,.13-.1,.25-.22,.38-.35v-1.28c-.5,0-.93,.03-1.28,.09s-.64,.15-.86,.25c-.22,.1-.38,.22-.48,.36s-.15,.29-.15,.47,.03,.31,.08,.42c.05,.12,.12,.22,.21,.29s.2,.13,.32,.17,.25,.05,.4,.05v.02Z"/><path class="e" d="M472.57,70.25c-.15,0-.25-.08-.29-.23l-.1-.75c-.26,.32-.57,.58-.91,.77s-.73,.29-1.17,.29c-.35,0-.68-.07-.96-.2-.29-.14-.54-.34-.74-.6-.2-.26-.36-.59-.47-.99-.11-.39-.17-.85-.17-1.36,0-.46,.06-.88,.18-1.27s.3-.73,.53-1.02c.23-.29,.51-.52,.84-.68s.7-.25,1.12-.25c.38,0,.7,.06,.97,.19,.27,.13,.51,.31,.72,.54v-3.43h1.09v9h-.64Zm-2.11-.8c.35,0,.66-.08,.93-.24,.27-.16,.51-.39,.74-.69v-2.99c-.2-.27-.42-.46-.66-.56s-.5-.16-.79-.16c-.58,0-1.02,.21-1.33,.62s-.46,1-.46,1.76c0,.4,.03,.75,.1,1.04s.17,.52,.31,.71c.13,.19,.3,.32,.5,.41,.2,.09,.42,.13,.67,.13v-.03Z"/><path class="e" d="M477.54,63.97c.45,0,.86,.07,1.22,.23,.36,.15,.67,.36,.93,.64,.25,.28,.45,.61,.59,1,.14,.39,.21,.83,.21,1.32s-.07,.93-.21,1.32c-.14,.39-.33,.72-.59,1-.25,.28-.56,.49-.93,.64s-.77,.22-1.22,.22-.86-.07-1.22-.22-.67-.36-.93-.64c-.26-.28-.45-.61-.59-1-.14-.39-.21-.83-.21-1.32s.07-.92,.21-1.32,.34-.73,.59-1c.26-.28,.57-.49,.93-.64s.77-.23,1.22-.23Zm0,5.52c.61,0,1.07-.2,1.37-.61s.45-.98,.45-1.71-.15-1.31-.45-1.72c-.3-.41-.76-.62-1.37-.62-.31,0-.58,.05-.81,.16s-.42,.26-.57,.46-.27,.45-.34,.74-.11,.62-.11,.99,.04,.7,.11,.98,.19,.53,.34,.73c.15,.2,.34,.35,.57,.46s.5,.16,.81,.16v-.02Z"/><path class="e" d="M481.83,70.25v-6.19h.62c.12,0,.2,.02,.24,.07s.08,.12,.09,.23l.07,.96c.21-.43,.47-.77,.79-1.01s.68-.36,1.1-.36c.17,0,.33,.02,.46,.06,.14,.04,.27,.09,.38,.16l-.14,.81c-.03,.1-.09,.15-.19,.15-.06,0-.14-.02-.26-.06s-.28-.06-.5-.06c-.38,0-.7,.11-.95,.33s-.47,.54-.64,.96v3.94h-1.07Z"/></g><g><path class="e" d="M283.92,81.5v1h-2.83v7.76h-1.18v-7.76h-2.84v-1h6.85Z"/><path class="e" d="M287.45,83.97c.37,0,.71,.06,1.03,.19,.31,.12,.58,.3,.81,.54,.23,.23,.41,.52,.53,.87,.13,.34,.19,.74,.19,1.18,0,.17-.02,.29-.06,.34-.04,.06-.11,.08-.21,.08h-4.12c0,.39,.06,.73,.16,1.02s.23,.53,.4,.72,.37,.34,.61,.43c.24,.1,.5,.14,.79,.14,.27,0,.51-.03,.71-.09,.2-.06,.37-.13,.51-.21,.14-.07,.26-.14,.36-.2s.18-.09,.25-.09c.09,0,.16,.04,.21,.1l.31,.4c-.13,.16-.3,.3-.48,.42-.19,.12-.39,.22-.6,.3s-.43,.14-.66,.17-.45,.06-.68,.06c-.43,0-.82-.07-1.18-.22s-.67-.36-.93-.63-.47-.62-.61-1.04-.22-.88-.22-1.42c0-.43,.07-.83,.2-1.21,.13-.37,.32-.7,.57-.97,.25-.27,.55-.49,.91-.65,.36-.16,.76-.23,1.21-.23h-.01Zm.02,.8c-.53,0-.94,.15-1.24,.46-.3,.3-.49,.72-.56,1.26h3.37c0-.25-.03-.48-.1-.69s-.17-.39-.31-.54-.3-.27-.49-.35-.41-.13-.66-.13h-.01Z"/><path class="e" d="M292.61,81.25v9h-1.09v-9h1.09Z"/><path class="e" d="M294.17,89.58c0-.11,.02-.21,.06-.3,.04-.09,.09-.17,.16-.24s.15-.12,.24-.16,.19-.06,.3-.06,.21,.02,.3,.06,.17,.1,.24,.16c.07,.07,.12,.15,.16,.24s.06,.19,.06,.3-.02,.21-.06,.3-.09,.17-.16,.24-.15,.12-.24,.16c-.09,.04-.19,.06-.3,.06s-.21-.02-.3-.06-.17-.09-.24-.16c-.07-.07-.12-.15-.16-.24-.04-.09-.06-.19-.06-.3Z"/><path class="e" d="M302.56,83.13v2.61h2.49v.83h-2.49v2.63h-.89v-2.63h-2.47v-.83h2.47v-2.61h.89Z"/><path class="e" d="M311.64,81.97c0,.16-.05,.28-.15,.38s-.26,.15-.49,.15h-2.75l-.4,2.3c.46-.1,.88-.15,1.26-.15,.46,0,.86,.07,1.21,.2s.64,.32,.88,.56,.41,.51,.53,.84c.12,.32,.18,.67,.18,1.05,0,.46-.08,.88-.24,1.26-.16,.38-.39,.7-.67,.96-.28,.27-.62,.47-1,.61s-.8,.21-1.24,.21c-.26,0-.5-.03-.74-.08s-.46-.12-.66-.2c-.2-.09-.39-.18-.57-.29-.18-.11-.33-.23-.46-.35l.33-.46c.07-.11,.17-.16,.29-.16,.08,0,.17,.03,.27,.1,.1,.06,.23,.13,.38,.21s.32,.15,.52,.21c.2,.06,.43,.09,.71,.09,.31,0,.58-.05,.82-.15s.45-.24,.63-.42c.17-.18,.31-.4,.4-.65s.14-.54,.14-.85c0-.27-.04-.52-.12-.74s-.2-.41-.36-.56c-.16-.15-.36-.28-.6-.36s-.52-.13-.84-.13c-.22,0-.45,.02-.68,.05s-.48,.1-.73,.18l-.68-.2,.71-4.09h4.15v.48h-.03Z"/><path class="e" d="M319.47,85.88c0,.77-.08,1.43-.25,1.99s-.39,1.02-.67,1.39c-.29,.37-.62,.64-1.01,.82s-.81,.27-1.25,.27-.86-.09-1.25-.27c-.38-.18-.72-.45-1-.82-.29-.37-.51-.83-.67-1.39s-.24-1.22-.24-1.99,.08-1.43,.24-1.99,.39-1.03,.67-1.4,.62-.64,1-.82,.8-.27,1.25-.27,.86,.09,1.25,.27,.73,.45,1.01,.82,.51,.83,.67,1.4c.16,.56,.25,1.23,.25,1.99Zm-1.13,0c0-.67-.06-1.23-.17-1.68-.11-.45-.26-.82-.45-1.1s-.41-.48-.66-.6c-.25-.12-.51-.18-.78-.18s-.53,.06-.78,.18-.47,.32-.65,.6c-.19,.28-.34,.64-.45,1.1s-.17,1.01-.17,1.68,.06,1.23,.17,1.68,.26,.82,.45,1.09c.19,.28,.41,.48,.65,.6,.25,.12,.51,.18,.78,.18s.53-.06,.78-.18,.47-.32,.66-.6,.34-.64,.45-1.09c.11-.45,.17-1.01,.17-1.68Z"/><path class="e" d="M323.62,81.4c.37,0,.71,.05,1.03,.16,.31,.11,.58,.26,.81,.45,.23,.2,.4,.43,.53,.71,.12,.28,.19,.58,.19,.92,0,.28-.04,.52-.11,.74-.07,.22-.17,.41-.3,.57-.13,.16-.29,.3-.48,.42-.19,.11-.4,.21-.63,.28,.57,.15,1,.4,1.29,.76,.29,.35,.43,.8,.43,1.33,0,.4-.08,.77-.23,1.09-.15,.32-.36,.6-.62,.82-.27,.23-.57,.4-.93,.52-.35,.12-.73,.18-1.13,.18-.46,0-.86-.06-1.19-.17-.33-.12-.61-.28-.84-.48s-.42-.45-.56-.72c-.15-.28-.27-.58-.37-.91l.46-.2c.09-.04,.17-.05,.26-.05s.15,.02,.22,.05c.06,.04,.11,.09,.14,.16,0,.02,.02,.03,.02,.05s.02,.04,.02,.06c.06,.12,.13,.25,.21,.4s.19,.29,.33,.42c.14,.13,.31,.24,.52,.33,.21,.09,.46,.13,.77,.13s.57-.05,.8-.15c.23-.1,.42-.23,.57-.39s.27-.34,.35-.53c.08-.2,.12-.39,.12-.58,0-.24-.03-.45-.09-.65-.06-.2-.18-.36-.34-.51-.17-.14-.39-.25-.69-.34-.29-.08-.66-.12-1.12-.12v-.79c.37,0,.69-.04,.95-.12s.48-.18,.65-.32c.17-.13,.29-.29,.36-.48,.07-.19,.11-.4,.11-.62,0-.25-.04-.47-.12-.66s-.19-.34-.33-.46c-.14-.12-.3-.21-.49-.27s-.39-.09-.61-.09-.42,.03-.61,.1c-.19,.06-.35,.16-.5,.27-.14,.12-.27,.25-.36,.41-.1,.16-.17,.33-.22,.52-.03,.12-.08,.2-.15,.26s-.15,.08-.25,.08h-.14l-.57-.1c.06-.4,.17-.75,.33-1.06,.16-.31,.37-.56,.62-.77s.54-.37,.86-.47c.32-.11,.67-.16,1.05-.16l-.02-.02Z"/><path class="e" d="M332.95,81.4c.37,0,.72,.06,1.04,.17s.6,.27,.83,.48c.23,.21,.42,.47,.55,.77,.13,.3,.2,.64,.2,1.03,0,.33-.05,.63-.15,.9s-.23,.54-.4,.8-.36,.5-.58,.74-.45,.48-.69,.73l-2.3,2.36c.16-.04,.33-.08,.49-.11,.17-.03,.33-.04,.48-.04h2.93c.12,0,.21,.04,.28,.1,.07,.07,.1,.16,.1,.27v.66h-5.84v-.37c0-.08,.02-.16,.05-.24,.03-.08,.08-.16,.15-.23l2.8-2.82c.23-.24,.44-.46,.64-.68,.19-.22,.35-.44,.49-.66,.14-.22,.24-.44,.31-.67,.07-.23,.11-.47,.11-.72s-.04-.48-.12-.68c-.08-.19-.19-.35-.34-.48-.14-.13-.31-.22-.5-.29-.19-.06-.4-.09-.62-.09s-.42,.03-.61,.1c-.19,.06-.35,.16-.5,.27-.14,.12-.27,.25-.37,.41s-.17,.33-.21,.53c-.03,.12-.08,.2-.15,.26-.07,.05-.15,.08-.26,.08h-.14l-.57-.1c.06-.4,.17-.75,.33-1.06,.16-.31,.37-.56,.62-.77s.54-.37,.86-.47c.32-.11,.67-.16,1.05-.16l.04-.02Z"/><path class="e" d="M340.03,81.4c.37,0,.72,.06,1.04,.17s.6,.27,.83,.48c.23,.21,.42,.47,.55,.77,.13,.3,.2,.64,.2,1.03,0,.33-.05,.63-.15,.9s-.23,.54-.4,.8-.36,.5-.58,.74-.45,.48-.69,.73l-2.3,2.36c.16-.04,.33-.08,.49-.11,.17-.03,.33-.04,.48-.04h2.93c.12,0,.21,.04,.28,.1,.07,.07,.1,.16,.1,.27v.66h-5.84v-.37c0-.08,.02-.16,.05-.24,.03-.08,.08-.16,.15-.23l2.8-2.82c.23-.24,.44-.46,.64-.68,.19-.22,.35-.44,.49-.66,.14-.22,.24-.44,.31-.67,.07-.23,.11-.47,.11-.72s-.04-.48-.12-.68c-.08-.19-.19-.35-.34-.48-.14-.13-.31-.22-.5-.29-.19-.06-.4-.09-.62-.09s-.42,.03-.61,.1c-.19,.06-.35,.16-.5,.27-.14,.12-.27,.25-.37,.41s-.17,.33-.21,.53c-.03,.12-.08,.2-.15,.26-.07,.05-.15,.08-.26,.08h-.14l-.57-.1c.06-.4,.17-.75,.33-1.06,.16-.31,.37-.56,.62-.77s.54-.37,.86-.47c.32-.11,.67-.16,1.05-.16l.04-.02Z"/><path class="e" d="M347.42,84.89c.35,0,.68,.06,1,.17s.59,.29,.82,.51,.42,.5,.56,.82c.14,.32,.21,.69,.21,1.11s-.07,.78-.22,1.12c-.15,.35-.35,.65-.61,.9-.26,.26-.58,.46-.95,.61-.37,.15-.78,.22-1.22,.22s-.84-.07-1.19-.21c-.36-.14-.66-.34-.91-.6s-.45-.57-.58-.94-.21-.78-.21-1.24c0-.38,.09-.79,.26-1.22s.44-.9,.81-1.39l2.22-2.99c.06-.07,.14-.14,.24-.19s.22-.08,.35-.08h.96l-3.04,3.84c.21-.14,.44-.25,.69-.33s.53-.12,.82-.12h-.01Zm-2.26,2.67c0,.28,.04,.54,.12,.77,.08,.23,.2,.43,.36,.6,.16,.17,.35,.3,.57,.39,.23,.09,.48,.14,.77,.14s.56-.05,.79-.14,.44-.22,.61-.39c.17-.17,.3-.37,.39-.59,.09-.23,.14-.48,.14-.74,0-.29-.04-.54-.13-.77-.09-.23-.22-.42-.38-.59-.16-.16-.36-.28-.59-.37-.23-.09-.48-.13-.75-.13-.29,0-.56,.05-.79,.15-.24,.1-.44,.23-.6,.4s-.29,.37-.38,.59c-.09,.22-.13,.45-.13,.69h0Z"/><path class="e" d="M352.28,89.42h1.88v-5.97c0-.18,0-.36,.02-.54l-1.56,1.34s-.08,.06-.12,.07-.08,.02-.12,.02c-.06,0-.12-.01-.17-.04-.05-.03-.08-.06-.11-.09l-.34-.47,2.6-2.25h.89v7.94h1.72v.83h-4.69v-.83h0Z"/><path class="e" d="M363.51,90.35c-.44,0-.83-.06-1.2-.17s-.67-.28-.93-.5c-.26-.22-.46-.48-.6-.78-.14-.31-.21-.65-.21-1.04,0-.56,.15-1.03,.44-1.39s.71-.62,1.26-.78c-.46-.17-.81-.43-1.04-.77s-.35-.75-.35-1.22c0-.32,.06-.62,.19-.9s.31-.53,.54-.73c.23-.21,.51-.37,.83-.49,.32-.12,.69-.18,1.08-.18s.76,.06,1.08,.18c.33,.12,.6,.28,.84,.49,.23,.21,.41,.45,.54,.73,.13,.28,.19,.58,.19,.9,0,.47-.12,.88-.35,1.22-.24,.34-.58,.6-1.04,.77,.55,.16,.96,.42,1.26,.78,.29,.37,.44,.83,.44,1.39,0,.38-.07,.73-.22,1.04-.14,.31-.35,.57-.6,.78-.25,.21-.57,.38-.93,.5s-.76,.17-1.2,.17h-.02Zm0-.87c.29,0,.54-.04,.77-.12,.23-.08,.42-.19,.57-.34,.16-.14,.28-.32,.36-.52s.12-.42,.12-.67c0-.3-.05-.56-.15-.77s-.23-.39-.4-.52c-.17-.13-.36-.23-.58-.29s-.45-.1-.69-.1-.47,.03-.69,.1c-.22,.06-.41,.16-.58,.29-.17,.13-.3,.31-.4,.52s-.15,.47-.15,.77c0,.25,.04,.47,.12,.67s.2,.37,.36,.52c.16,.14,.35,.26,.57,.34,.23,.08,.48,.12,.77,.12Zm0-4.2c.29,0,.53-.04,.73-.13s.37-.2,.49-.35,.22-.31,.27-.5c.06-.19,.09-.38,.09-.58s-.03-.39-.1-.57-.17-.34-.3-.47c-.13-.13-.3-.24-.49-.32-.2-.08-.43-.12-.69-.12s-.49,.04-.69,.12-.36,.18-.5,.32c-.13,.13-.23,.29-.3,.47-.07,.18-.1,.37-.1,.57s.03,.39,.09,.58,.15,.35,.27,.5c.13,.14,.29,.26,.49,.35,.2,.09,.44,.13,.73,.13h.01Z"/><path class="e" d="M368.81,89.42h1.88v-5.97c0-.18,0-.36,.02-.54l-1.56,1.34s-.08,.06-.12,.07-.08,.02-.12,.02c-.06,0-.12-.01-.17-.04-.05-.03-.08-.06-.11-.09l-.34-.47,2.6-2.25h.89v7.94h1.72v.83h-4.69v-.83h0Z"/><path class="e" d="M380.86,85.88c0,.77-.08,1.43-.25,1.99s-.39,1.02-.67,1.39c-.29,.37-.62,.64-1.01,.82s-.8,.27-1.25,.27-.86-.09-1.25-.27c-.38-.18-.72-.45-1-.82-.29-.37-.51-.83-.67-1.39s-.24-1.22-.24-1.99,.08-1.43,.24-1.99,.39-1.03,.67-1.4,.62-.64,1-.82,.8-.27,1.25-.27,.86,.09,1.25,.27,.73,.45,1.01,.82c.29,.37,.51,.83,.67,1.4s.25,1.23,.25,1.99Zm-1.13,0c0-.67-.06-1.23-.17-1.68-.11-.45-.26-.82-.45-1.1s-.41-.48-.66-.6c-.25-.12-.51-.18-.78-.18s-.53,.06-.78,.18-.47,.32-.65,.6c-.19,.28-.34,.64-.45,1.1-.11,.45-.17,1.01-.17,1.68s.06,1.23,.17,1.68c.11,.45,.26,.82,.45,1.09,.19,.28,.41,.48,.65,.6s.51,.18,.78,.18,.53-.06,.78-.18,.47-.32,.66-.6,.34-.64,.45-1.09c.11-.45,.17-1.01,.17-1.68Z"/><path class="e" d="M387.95,85.88c0,.77-.08,1.43-.25,1.99s-.39,1.02-.67,1.39c-.29,.37-.62,.64-1.01,.82s-.8,.27-1.25,.27-.86-.09-1.25-.27c-.38-.18-.72-.45-1-.82-.29-.37-.51-.83-.67-1.39s-.24-1.22-.24-1.99,.08-1.43,.24-1.99,.39-1.03,.67-1.4,.62-.64,1-.82,.8-.27,1.25-.27,.86,.09,1.25,.27,.73,.45,1.01,.82,.51,.83,.67,1.4,.25,1.23,.25,1.99Zm-1.13,0c0-.67-.06-1.23-.17-1.68-.11-.45-.26-.82-.45-1.1s-.41-.48-.66-.6c-.25-.12-.51-.18-.78-.18s-.53,.06-.78,.18-.47,.32-.65,.6c-.19,.28-.34,.64-.45,1.1s-.17,1.01-.17,1.68,.06,1.23,.17,1.68,.26,.82,.45,1.09c.19,.28,.41,.48,.65,.6s.51,.18,.78,.18,.53-.06,.78-.18,.47-.32,.66-.6,.34-.64,.45-1.09c.11-.45,.17-1.01,.17-1.68Z"/></g></g></g></svg>