<?xml version="1.0" encoding="UTF-8"?><svg xmlns="http://www.w3.org/2000/svg" viewBox="0 0 431.08 103.81"><defs><style>.e{fill:#9c182f;}.f{fill:#921733;}.g{fill:#ed8aa3;}.h{fill:none;stroke:#929292;stroke-miterlimit:10;stroke-width:.25px;}</style></defs><g id="a"/><g id="b"><g id="c"><g id="d"><g><g><path class="g" d="M283.96,29.64h-.77c-.13,0-.24-.02-.33-.05-.1-.03-.19-.11-.28-.24l-8.51-10.42c-.09-.13-.19-.23-.28-.31-.1-.08-.21-.15-.33-.2-.12-.05-.26-.09-.43-.11-.17-.02-.37-.03-.61-.03h-3.52v11.36h-.94V5.51h5.82c2.62,0,4.61,.51,5.97,1.53,1.36,1.02,2.04,2.56,2.04,4.63,0,.95-.18,1.81-.53,2.58s-.85,1.44-1.49,2.01c-.64,.57-1.42,1.02-2.33,1.36s-1.93,.54-3.04,.61c.21,.11,.41,.29,.6,.51l8.98,10.9h-.02Zm-15.07-12.08h4.6c1.13,0,2.15-.13,3.06-.4s1.68-.66,2.32-1.17c.63-.51,1.12-1.12,1.46-1.84s.51-1.53,.51-2.44c0-1.86-.61-3.24-1.82-4.12-1.21-.88-2.96-1.32-5.25-1.32h-4.87v11.29h-.01Z"/><path class="g" d="M296.54,27.56c-.23,.29-.55,.57-.96,.84s-.88,.52-1.42,.73c-.53,.21-1.11,.38-1.73,.52-.62,.13-1.26,.2-1.91,.2-1.16,0-2.2-.2-3.13-.61s-1.73-.99-2.39-1.76-1.16-1.71-1.52-2.82c-.36-1.12-.53-2.39-.53-3.82,0-1.24,.17-2.37,.51-3.39s.83-1.91,1.47-2.65,1.42-1.32,2.35-1.73,1.98-.62,3.16-.62c.92,0,1.77,.16,2.57,.48,.79,.32,1.49,.79,2.08,1.42s1.06,1.39,1.4,2.31,.51,1.96,.51,3.14c0,.24-.1,.36-.31,.36h-12.82c-.01,.11-.02,.23-.02,.33v.35c0,1.35,.16,2.54,.48,3.57s.77,1.89,1.36,2.59c.58,.7,1.29,1.23,2.12,1.59s1.75,.54,2.77,.54c.9,0,1.69-.1,2.35-.3,.66-.2,1.22-.42,1.67-.66s.79-.46,1.04-.66,.4-.3,.47-.3c.09,0,.17,.03,.22,.1l.22,.26h-.01Zm-.38-8.02c0-1.02-.15-1.92-.44-2.72-.29-.79-.69-1.47-1.2-2.02s-1.11-.97-1.81-1.25-1.45-.43-2.27-.43c-.96,0-1.82,.15-2.58,.46-.76,.3-1.42,.73-1.96,1.3-.55,.56-.99,1.24-1.33,2.02-.34,.79-.56,1.67-.66,2.64h12.25Z"/><path class="g" d="M298.7,15.12c.85-.87,1.73-1.53,2.66-1.99s1.99-.69,3.17-.69c.88,0,1.65,.14,2.3,.42s1.19,.68,1.62,1.21,.75,1.16,.95,1.91c.21,.75,.31,1.59,.31,2.53v11.12h-.31c-.23,0-.36-.12-.39-.36l-.17-2.51c-.47,.48-.94,.92-1.41,1.3-.47,.39-.97,.72-1.49,.99-.53,.27-1.09,.48-1.7,.63-.61,.15-1.28,.22-2.01,.22-.54,0-1.07-.08-1.6-.24s-1-.41-1.42-.75-.76-.79-1.02-1.33c-.26-.54-.39-1.2-.39-1.96s.21-1.42,.64-2.03c.43-.61,1.1-1.13,2-1.57s2.05-.79,3.43-1.05c1.38-.26,3.03-.41,4.94-.46v-2.01c0-1.69-.37-3.01-1.1-3.95s-1.82-1.41-3.26-1.41c-.86,0-1.6,.12-2.21,.37-.62,.25-1.13,.52-1.54,.82-.41,.3-.74,.58-.99,.82-.25,.25-.43,.37-.56,.37-.12,0-.22-.06-.31-.19l-.15-.24v.03Zm10.13,6.04c-3.46,.11-6.01,.54-7.66,1.29s-2.48,1.79-2.48,3.14c0,.63,.11,1.17,.32,1.63,.21,.46,.49,.84,.84,1.14s.75,.53,1.19,.67c.45,.14,.9,.21,1.37,.21,.73,0,1.4-.08,2.01-.25,.61-.17,1.17-.39,1.68-.68s1-.62,1.44-1.01c.45-.39,.88-.8,1.29-1.24v-4.91h0Z"/><path class="g" d="M314.09,4.82V29.64h-.89V4.82h.89Z"/><path class="g" d="M328.56,12.72v.38c0,.07-.01,.13-.04,.19s-.07,.12-.13,.19l-11.34,15.45h11.04v.72h-12.17v-.33c0-.07,.01-.13,.04-.19,.03-.06,.07-.13,.13-.21l11.36-15.48h-10.95v-.72h12.06Z"/><path class="g" d="M329.74,15.12c.85-.87,1.73-1.53,2.66-1.99s1.99-.69,3.17-.69c.88,0,1.65,.14,2.3,.42s1.19,.68,1.62,1.21,.75,1.16,.95,1.91c.21,.75,.31,1.59,.31,2.53v11.12h-.31c-.23,0-.36-.12-.39-.36l-.17-2.51c-.47,.48-.94,.92-1.41,1.3-.47,.39-.97,.72-1.49,.99-.53,.27-1.09,.48-1.7,.63-.61,.15-1.28,.22-2.01,.22-.54,0-1.07-.08-1.6-.24s-1-.41-1.42-.75-.76-.79-1.02-1.33c-.26-.54-.39-1.2-.39-1.96s.21-1.42,.64-2.03c.43-.61,1.1-1.13,2-1.57s2.05-.79,3.43-1.05c1.38-.26,3.03-.41,4.94-.46v-2.01c0-1.69-.37-3.01-1.1-3.95s-1.82-1.41-3.26-1.41c-.86,0-1.6,.12-2.21,.37-.62,.25-1.13,.52-1.54,.82-.41,.3-.74,.58-.99,.82-.25,.25-.43,.37-.56,.37-.12,0-.22-.06-.31-.19l-.15-.24v.03Zm10.14,6.04c-3.46,.11-6.01,.54-7.66,1.29s-2.48,1.79-2.48,3.14c0,.63,.11,1.17,.32,1.63,.21,.46,.49,.84,.84,1.14s.75,.53,1.19,.67c.45,.14,.9,.21,1.37,.21,.73,0,1.4-.08,2.01-.25,.61-.17,1.17-.39,1.68-.68s1-.62,1.44-1.01c.45-.39,.88-.8,1.29-1.24v-4.91h0Z"/><path class="g" d="M355.4,29.91c-1.05,0-1.88-.29-2.47-.87-.6-.58-.89-1.51-.89-2.79V14.05h-2.64c-.22,0-.33-.09-.33-.26v-.31l2.97-.12,.26-6.52c.01-.07,.04-.13,.08-.2,.05-.06,.11-.09,.19-.09h.38v6.81h5.59v.69h-5.59v12.17c0,.53,.07,.98,.21,1.35,.14,.37,.32,.68,.55,.92,.23,.24,.5,.42,.81,.52,.31,.11,.66,.16,1.02,.16,.45,0,.84-.07,1.18-.21s.63-.29,.87-.45,.43-.31,.58-.45c.15-.14,.26-.21,.33-.21,.06,0,.12,.03,.19,.1l.22,.33c-.19,.24-.42,.46-.68,.65-.26,.19-.54,.36-.85,.51-.31,.14-.63,.25-.96,.33s-.67,.12-1.01,.12v.02Z"/><path class="g" d="M372.66,12.72V29.64h-.41c-.21,0-.33-.11-.36-.34l-.09-2.95c-.8,1.09-1.74,1.95-2.83,2.6s-2.28,.97-3.59,.97c-.94,0-1.76-.15-2.46-.44-.7-.29-1.29-.71-1.75-1.25s-.81-1.21-1.05-2-.35-1.68-.35-2.68V12.72h.91v10.83c0,.88,.1,1.67,.29,2.37s.49,1.29,.9,1.78,.92,.86,1.53,1.12,1.33,.39,2.15,.39c1.22,0,2.36-.32,3.41-.97,1.05-.65,1.98-1.54,2.81-2.69V12.73h.89Z"/></g><g><path class="g" d="M268.01,77.24c.79-1.09,1.73-1.95,2.82-2.59s2.29-.96,3.58-.96c.94,0,1.76,.15,2.46,.44,.7,.29,1.29,.71,1.75,1.25s.81,1.21,1.05,2,.35,1.68,.35,2.68v10.83h-.91v-10.83c0-.88-.1-1.67-.29-2.37-.19-.7-.5-1.29-.9-1.78-.41-.49-.91-.86-1.52-1.12s-1.32-.39-2.14-.39c-1.24,0-2.38,.32-3.42,.97-1.05,.65-1.98,1.54-2.79,2.69v12.82h-.91v-16.92h.43c.22,0,.33,.11,.34,.34l.1,2.93h0Z"/><path class="g" d="M282.81,76.37c.85-.87,1.73-1.53,2.66-1.99s1.99-.69,3.17-.69c.88,0,1.65,.14,2.3,.42s1.19,.68,1.62,1.21,.75,1.16,.95,1.91c.21,.75,.31,1.59,.31,2.53v11.12h-.31c-.23,0-.36-.12-.39-.36l-.17-2.51c-.47,.48-.94,.92-1.41,1.3-.47,.39-.97,.72-1.49,.99-.53,.27-1.09,.48-1.7,.63-.61,.15-1.28,.22-2.01,.22-.54,0-1.07-.08-1.6-.24s-1-.41-1.42-.75-.76-.79-1.02-1.33c-.26-.54-.39-1.2-.39-1.96s.21-1.42,.64-2.03c.43-.61,1.1-1.13,2-1.57s2.05-.79,3.43-1.05,3.03-.41,4.94-.46v-2.01c0-1.69-.37-3.01-1.1-3.95-.73-.94-1.82-1.41-3.26-1.41-.86,0-1.6,.12-2.21,.37-.62,.25-1.13,.52-1.54,.82s-.74,.58-.99,.82c-.25,.25-.43,.37-.56,.37-.12,0-.22-.06-.31-.19l-.15-.24v.03Zm10.13,6.04c-3.46,.11-6.01,.54-7.66,1.29s-2.48,1.79-2.48,3.14c0,.63,.11,1.17,.32,1.63,.21,.46,.49,.84,.84,1.14s.75,.53,1.19,.67c.45,.14,.9,.21,1.37,.21,.73,0,1.4-.08,2.01-.25,.61-.17,1.17-.39,1.68-.68s1-.62,1.44-1.01c.45-.39,.88-.8,1.29-1.24v-4.91h0Z"/><path class="g" d="M301.27,91.16c-1.05,0-1.88-.29-2.47-.87-.6-.58-.89-1.51-.89-2.79v-12.2h-2.64c-.22,0-.33-.09-.33-.26v-.31l2.97-.12,.26-6.52c.01-.07,.04-.13,.08-.2,.05-.06,.11-.09,.19-.09h.38v6.81h5.59v.69h-5.59v12.17c0,.53,.07,.98,.21,1.35,.14,.37,.32,.68,.55,.92,.23,.24,.5,.42,.81,.52,.31,.11,.66,.16,1.02,.16,.45,0,.84-.07,1.18-.21s.63-.29,.87-.45c.24-.16,.43-.31,.58-.45s.26-.21,.33-.21c.06,0,.12,.03,.19,.1l.22,.33c-.19,.24-.42,.46-.68,.65-.26,.19-.54,.36-.85,.51-.31,.14-.63,.25-.96,.33s-.67,.12-1.01,.12v.02Z"/><path class="g" d="M318.54,73.96v16.92h-.41c-.21,0-.33-.11-.36-.34l-.09-2.95c-.8,1.09-1.74,1.95-2.83,2.6s-2.28,.97-3.59,.97c-.94,0-1.76-.15-2.46-.44-.7-.29-1.29-.71-1.75-1.25s-.81-1.21-1.05-2-.35-1.68-.35-2.68v-10.83h.91v10.83c0,.88,.1,1.67,.29,2.37,.19,.7,.49,1.29,.9,1.78s.92,.86,1.53,1.12,1.33,.39,2.15,.39c1.22,0,2.36-.32,3.41-.97,1.05-.65,1.98-1.54,2.81-2.69v-12.82h.89Z"/><path class="g" d="M322.84,78.49c.25-.77,.55-1.45,.89-2.04,.34-.59,.74-1.1,1.19-1.51s.96-.72,1.54-.94c.57-.21,1.22-.32,1.94-.32,.33,0,.67,.03,1.02,.08,.35,.05,.66,.16,.94,.32l-.1,.53c-.05,.13-.13,.19-.24,.19-.13,0-.32-.04-.58-.13-.26-.09-.64-.13-1.14-.13-.71,0-1.34,.11-1.9,.33s-1.05,.55-1.48,.99c-.43,.44-.81,.98-1.14,1.63-.33,.65-.64,1.41-.91,2.28v11.1h-.91v-16.92h.41c.23,0,.35,.13,.36,.38l.1,4.15h.01Z"/><path class="g" d="M330.43,76.37c.85-.87,1.73-1.53,2.66-1.99s1.99-.69,3.17-.69c.88,0,1.65,.14,2.3,.42s1.19,.68,1.62,1.21,.75,1.16,.95,1.91c.21,.75,.31,1.59,.31,2.53v11.12h-.31c-.23,0-.36-.12-.39-.36l-.17-2.51c-.47,.48-.94,.92-1.41,1.3-.47,.39-.97,.72-1.49,.99-.53,.27-1.09,.48-1.7,.63-.61,.15-1.28,.22-2.01,.22-.54,0-1.07-.08-1.6-.24s-1-.41-1.42-.75-.76-.79-1.02-1.33c-.26-.54-.39-1.2-.39-1.96s.21-1.42,.64-2.03c.43-.61,1.1-1.13,2-1.57s2.05-.79,3.43-1.05,3.03-.41,4.94-.46v-2.01c0-1.69-.37-3.01-1.1-3.95-.73-.94-1.82-1.41-3.26-1.41-.86,0-1.6,.12-2.21,.37-.62,.25-1.13,.52-1.54,.82s-.74,.58-.99,.82c-.25,.25-.43,.37-.56,.37-.12,0-.22-.06-.31-.19l-.15-.24v.03Zm10.13,6.04c-3.46,.11-6.01,.54-7.66,1.29s-2.48,1.79-2.48,3.14c0,.63,.11,1.17,.32,1.63,.21,.46,.49,.84,.84,1.14s.75,.53,1.19,.67c.45,.14,.9,.21,1.37,.21,.73,0,1.4-.08,2.01-.25,.61-.17,1.17-.39,1.68-.68s1-.62,1.44-1.01c.45-.39,.88-.8,1.29-1.24v-4.91h0Z"/><path class="g" d="M345.82,66.07v24.82h-.89v-24.82h.89Z"/></g><g><path class="g" d="M275.18,32.33l.67,.27v13.73c.27-.42,.59-.78,.97-1.07s.79-.53,1.24-.72c.45-.19,.91-.32,1.39-.4s.95-.12,1.42-.12c1.58,0,2.96,.26,4.14,.79,1.17,.52,2.14,1.24,2.91,2.16s1.35,2,1.74,3.26c.39,1.26,.59,2.63,.59,4.1s-.21,2.95-.64,4.22-1.05,2.37-1.88,3.28c-.83,.92-1.85,1.62-3.06,2.13-1.22,.5-2.62,.75-4.2,.75-1.14,0-2.23-.16-3.28-.47-1.05-.31-2-.85-2.85-1.61l-4.42,1.81h-.44v-24.95c0-.74-.22-1.34-.65-1.82s-1-.82-1.69-1.02v-.67c.4-.04,1-.21,1.79-.49,.79-.28,1.61-.6,2.44-.97,.84-.37,1.61-.75,2.33-1.16,.71-.4,1.21-.75,1.47-1.04h.01Zm.67,15.95v11.99c.13,.94,.5,1.69,1.09,2.26s1.37,.85,2.33,.85,1.69-.32,2.26-.97,1-1.44,1.31-2.38c.3-.94,.5-1.93,.59-2.96,.09-1.04,.13-1.94,.13-2.7,0-.69-.03-1.53-.1-2.53-.07-.99-.24-1.95-.52-2.86-.28-.92-.7-1.7-1.26-2.34-.56-.65-1.33-.97-2.31-.97-.69,0-1.36,.22-2.01,.67-.65,.45-1.15,1.09-1.51,1.94h0Z"/><path class="g" d="M292.93,54.33c0-1.58,.26-3.01,.79-4.29s1.26-2.35,2.19-3.25c.94-.89,2.06-1.58,3.38-2.06s2.77-.72,4.35-.72c1.47,0,2.77,.23,3.88,.7s2.04,1.11,2.78,1.93c.74,.81,1.29,1.77,1.67,2.86s.57,2.25,.57,3.48l-13.26,1.1c.09,1,.28,1.93,.59,2.76,.3,.84,.72,1.56,1.27,2.16s1.22,1.07,2.01,1.41c.79,.33,1.72,.5,2.8,.5,1.47,0,2.86-.36,4.17-1.09,1.31-.73,2.46-1.84,3.46-3.33l.44,.2c-.98,2.46-2.37,4.4-4.17,5.84-1.8,1.44-3.98,2.16-6.55,2.16-1.63,0-3.09-.23-4.37-.7-1.28-.47-2.37-1.15-3.26-2.04s-1.57-1.98-2.04-3.26-.7-2.74-.7-4.37h0Zm6.29-1.33l7.2-.87c.13-.85,.17-1.7,.1-2.54-.07-.85-.22-1.61-.45-2.29s-.56-1.23-.99-1.66c-.42-.42-.94-.64-1.54-.64-.85,0-1.55,.26-2.11,.79s-1,1.18-1.34,1.98-.57,1.66-.7,2.59c-.13,.94-.19,1.82-.17,2.65h0Z"/><path class="g" d="M314.89,64.04c.67-.27,1.22-.65,1.64-1.16,.42-.5,.64-1.26,.64-2.26v-21.43c0-.71-.14-1.41-.42-2.08-.28-.67-.8-1.09-1.56-1.27v-.67c.45,0,1.04-.11,1.79-.32s1.52-.46,2.31-.75,1.52-.6,2.18-.92,1.12-.61,1.39-.85l.67,.27v28.03c0,1,.21,1.76,.64,2.26,.42,.5,.97,.89,1.64,1.16v.4h-10.92v-.4h0Z"/><path class="g" d="M326.68,64.04c.67-.27,1.22-.65,1.64-1.16,.42-.5,.64-1.26,.64-2.26v-21.43c0-.71-.14-1.41-.42-2.08-.28-.67-.8-1.09-1.56-1.27v-.67c.45,0,1.04-.11,1.79-.32s1.52-.46,2.31-.75,1.52-.6,2.18-.92,1.12-.61,1.39-.85l.67,.27v28.03c0,1,.21,1.76,.64,2.26,.42,.5,.97,.89,1.64,1.16v.4h-10.92v-.4h0Z"/><path class="g" d="M338.87,54.33c0-1.58,.26-3.01,.79-4.29s1.26-2.35,2.19-3.25c.94-.89,2.06-1.58,3.38-2.06s2.77-.72,4.35-.72c1.47,0,2.77,.23,3.88,.7s2.04,1.11,2.78,1.93c.74,.81,1.29,1.77,1.67,2.86s.57,2.25,.57,3.48l-13.26,1.1c.09,1,.28,1.93,.59,2.76,.3,.84,.72,1.56,1.27,2.16s1.22,1.07,2.01,1.41c.79,.33,1.72,.5,2.8,.5,1.47,0,2.86-.36,4.17-1.09,1.31-.73,2.46-1.84,3.46-3.33l.44,.2c-.98,2.46-2.37,4.4-4.17,5.84-1.8,1.44-3.98,2.16-6.55,2.16-1.63,0-3.09-.23-4.37-.7-1.28-.47-2.37-1.15-3.26-2.04s-1.57-1.98-2.04-3.26-.7-2.74-.7-4.37h0Zm6.29-1.33l7.2-.87c.13-.85,.17-1.7,.1-2.54-.07-.85-.22-1.61-.45-2.29s-.56-1.23-.99-1.66c-.42-.42-.94-.64-1.54-.64-.85,0-1.55,.26-2.11,.79s-1,1.18-1.34,1.98-.57,1.66-.7,2.59c-.13,.94-.19,1.82-.17,2.65h0Z"/><path class="g" d="M360.7,64.45v-1l10.95-18.08h-4.09c-1.03,0-1.88,.18-2.56,.55s-1.25,.84-1.69,1.41-.82,1.19-1.1,1.86c-.29,.67-.56,1.29-.8,1.88h-.57l.9-6.7h17.21v.97l-10.95,18.11h4.45c1.03,0,1.88-.18,2.56-.55s1.25-.83,1.71-1.39c.46-.56,.84-1.17,1.14-1.84,.3-.67,.57-1.31,.82-1.91h.5l-.9,6.7h-17.58Z"/><path class="g" d="M388.39,52.99c.65-.11,1.25-.26,1.81-.45,.56-.19,1.04-.46,1.46-.8,.41-.35,.74-.78,.97-1.29,.23-.51,.35-1.14,.35-1.88,0-.42-.05-.85-.15-1.27-.1-.42-.26-.8-.47-1.14-.21-.33-.49-.61-.82-.82-.33-.21-.75-.32-1.24-.32-.83,0-1.51,.22-2.04,.65-.54,.44-.8,1.09-.8,1.96,0,.42,.07,.82,.22,1.19s.22,.75,.22,1.16c0,.36-.09,.68-.27,.95-.18,.28-.41,.51-.7,.69s-.61,.31-.95,.4c-.35,.09-.68,.13-.99,.13-.8,0-1.5-.26-2.09-.77-.59-.51-.89-1.19-.89-2.04,0-1.03,.32-1.88,.95-2.56,.64-.68,1.42-1.23,2.34-1.64,.93-.41,1.9-.7,2.93-.87s1.94-.25,2.75-.25c1.07,0,2.12,.11,3.13,.32,1.02,.21,1.91,.57,2.68,1.07s1.39,1.17,1.86,2.01,.7,1.88,.7,3.13v8.37c0,.25,.03,.5,.08,.77,.06,.27,.14,.51,.27,.74,.12,.22,.29,.41,.49,.55,.2,.15,.45,.22,.74,.22,.33,0,.64-.1,.92-.3s.51-.44,.69-.7l.5,.27c-.42,1.36-1.17,2.37-2.23,3.01-1.06,.65-2.28,.97-3.67,.97-.8,0-1.58-.15-2.34-.44s-1.31-.85-1.64-1.67c-.47,.25-.95,.51-1.44,.8s-.99,.55-1.51,.79c-.51,.23-1.03,.43-1.56,.59s-1.07,.23-1.62,.23c-.83,0-1.6-.1-2.33-.28-.73-.19-1.36-.5-1.91-.92-.55-.42-.98-.96-1.29-1.61s-.47-1.43-.47-2.34c0-1.07,.21-1.99,.64-2.75,.42-.76,.98-1.4,1.67-1.93,.69-.52,1.48-.94,2.36-1.24s1.78-.53,2.7-.69h0Zm2.34,8.98c.42,0,.82-.08,1.19-.25s.72-.37,1.05-.62v-8.57c-.74,.2-1.42,.47-2.06,.82-.64,.35-1.19,.76-1.66,1.24s-.84,1.04-1.12,1.69-.42,1.38-.42,2.21c0,.94,.25,1.75,.74,2.44s1.25,1.04,2.28,1.04h0Z"/></g><path class="e" d="M407.86,11.03s1.95,15.63-14.82,14.82h0c16.77-.83,14.82,14.8,14.82,14.8h.14s-1.95-15.63,14.82-14.82h0c-16.77,.83-14.82-14.8-14.82-14.8"/><path class="e" d="M421.74,35.52s1.22,9.75-9.25,9.25h0c10.47-.52,9.25,9.24,9.25,9.24h.09s-1.22-9.75,9.25-9.25h0c-10.47,.52-9.25-9.24-9.25-9.24"/><g><path class="e" d="M45.08,11.72c-.28,0-6.98-1.13-10.27,8.77-.74,2.25,2.39,7.87,3.62,7.87,1.69,0,1.22-9.37,5.53-9.37s1.55,6.08,1.55,6.08c0,0-11.91,35.26-27.2,35.26-7.51,0-3.29-8.89-2.28-11.17,1.02-2.27,14.74-27.01,14.74-34.24S26.9,.09,18.31,0C9.72-.09,0,9.97,0,18.67s5.57,8.52,6.59,8.52,4.49,.18,9.07-8.06c0,0-6.34,3.82-7.79,2S13.12,5.79,18.83,5.79c.39,0,1.39,.02,2.24,.66,2.63,2.01,.98,7.91,.73,8.83-.48,1.73-1.14,3.09-3.5,6.82-3.86,6.1-5.57,7.89-8.74,13.11-1.62,2.66-2.44,4.03-3.32,6.12-1.15,2.73-2.47,5.87-2.45,9.79,0,1.55,.05,7.23,4.16,11.44,5.11,5.24,12.74,4.29,13.95,4.18,8.41-.81,17.11-13.57,18.12-15.2,1.02-1.63,10.71-20.42,10.71-33.59,0-5.85-5.39-6.22-5.66-6.22M115.46,76.67c-.78,.65-1.73,.98-2.85,.98-.93,0-1.78-.24-2.57-.72s-1.37-1.2-1.75-2.16c-.38-.96-.57-2.09-.57-3.38,0-1,.16-1.97,.48-2.92,.32-.94,.87-1.69,1.65-2.25s1.76-.84,2.92-.84c1.02,0,1.86,.25,2.53,.76,.67,.5,1.18,1.31,1.53,2.41l1.97-.47c-.4-1.4-1.12-2.49-2.16-3.26-1.03-.77-2.31-1.16-3.83-1.16-1.34,0-2.57,.3-3.68,.92-1.11,.61-1.97,1.5-2.57,2.68s-.9,2.56-.9,4.14c0,1.45,.26,2.81,.8,4.06,.53,1.27,1.31,2.23,2.34,2.9,1.02,.67,2.36,1,3.99,1s2.91-.43,4.01-1.3c1.09-.86,1.85-2.12,2.27-3.77l-2.01-.51c-.28,1.28-.8,2.24-1.58,2.89m12.62,.09c-.61,.7-1.39,1.05-2.32,1.05s-1.71-.35-2.32-1.05c-.62-.7-.92-1.75-.92-3.16s.31-2.45,.92-3.15c.62-.69,1.39-1.05,2.32-1.05s1.69,.35,2.32,1.05c.62,.7,.93,1.73,.93,3.08,0,1.44-.31,2.51-.93,3.21m-2.31-8.87c-1.36,0-2.52,.4-3.46,1.22-1.13,.98-1.7,2.48-1.7,4.51,0,1.85,.48,3.28,1.42,4.26,.95,.99,2.2,1.48,3.73,1.48,.96,0,1.85-.23,2.66-.67,.81-.45,1.43-1.08,1.86-1.89,.42-.81,.64-1.92,.64-3.33,0-1.74-.48-3.11-1.44-4.1s-2.19-1.48-3.71-1.48m10.2,.37c-.36,.25-.76,.77-1.19,1.55v-1.68h-1.68v11.01h1.87v-5.75c0-.79,.1-1.51,.31-2.17,.14-.44,.37-.78,.69-1.02s.69-.37,1.09-.37c.45,0,.91,.13,1.36,.38l.66-1.72c-.65-.39-1.29-.59-1.92-.59-.44,0-.83,.12-1.2,.37m11.02,8.51c-.59,.7-1.29,1.05-2.12,1.05s-1.51-.34-2.08-1.01c-.57-.68-.86-1.72-.86-3.13s.3-2.49,.91-3.23c.61-.74,1.31-1.11,2.1-1.11s1.48,.35,2.06,1.05c.57,.7,.86,1.74,.86,3.14,0,1.47-.3,2.55-.89,3.25m.64-8.18c-.72-.48-1.55-.72-2.49-.72-.72,0-1.33,.14-1.83,.42-.51,.28-.96,.7-1.36,1.26v-1.44h-1.7v15.23h1.87v-5.37c.32,.4,.72,.73,1.22,.99,.49,.26,1.05,.39,1.67,.39,.85,0,1.66-.24,2.43-.72,.77-.48,1.36-1.17,1.76-2.07s.6-1.91,.6-3.03c0-1.05-.18-2.01-.55-2.89-.36-.88-.91-1.56-1.62-2.04m4.98,10.51h2.12v-2.12h-2.12v2.12ZM56.4,53.74c-.76-.64-.84-1.66-.87-2.27-.07-1.1,.18-2.16,1.42-4.81,.71-1.52,1.33-2.64,1.55-3.05,1.9-3.5,3.1-5.36,4.54-7.13,1.11-1.36,2.02-2.26,3.32-2.49,.34-.06,1.16-.19,1.91,.27,1.09,.67,1.21,2.08,1.24,2.35,.08,.92-.23,1.64-.35,1.92-2.51,5.76-6.81,11.71-6.81,11.71-1.63,2.26-2.99,4.11-4.54,4.02-.83-.05-1.4-.52-1.4-.52m19.22-19.19s.66-9.29-6.12-10.03c0,0-3.21-.55-8.09,1.71-1.27-.47-2.43-.9-3.62-1.33-.63-.23-1.47-.54-2.27-.17-.24,.11-.41,.24-.52,.35-1.09,2.53-2.41,5.23-4.02,8.04-.82,1.44-1.66,2.79-2.49,4.06-.09,.16-.67,1.16-.25,2.25,.26,.69,.98,1.38,2.66,1.81-.07-.14-3.27,3.9-4.13,6.12-.86,2.22-3.15,15.19,7.05,15.19s20.11-15.74,21.81-28m73.87-5.31c.19-.04,.75-.14,1.23,.15,.79,.47,.86,1.66,.89,2.16,.29,4.74-5.79,8.28-6.12,8.39-.21,.07-.35,0-.35,0,0,0-.1-.05-.17-.17-.23-.4,1.16-9.87,4.52-10.52m-68.64,57.16c-1.43,1.45-2.5,1.58-3,1.58-.25,0-1.04,0-1.72-.53-.86-.67-.99-1.79-1.05-2.27-.64-5.32,9.23-13.68,9.61-13.8,.1-.03,.17,0,.17,0,0,0,.13,.06,.17,.35,.57,3.88-1.22,8.91-1.22,8.91-1.31,3.67-2.03,4.81-2.97,5.77m86.17-48.24c-.13,.12-.19,.3-.27,.47-.16,.31-.32,.61-.48,.91-1.1,2.04-2.32,4.02-3.76,5.83-1.04,1.3-2.19,2.52-3.53,3.52-.97,.72-2.05,1.32-3.21,1.68-.91,.27-1.86,.39-2.81,.31-.8-.07-1.59-.27-2.32-.58-.62-.26-1.21-.6-1.75-1-.39-.28-.76-.6-1.1-.95-.05-.05-.38-.33-.36-.42,4.67-.14,16.16-21.02,9.56-27.48-1.74-1.7-5.22-1.87-5.59-1.88-5.59-.13-9.57,4.51-10.06,5.1-5.38,6.45-5.92,18.58-6.12,23.07,0,.19-.06,1.41-.7,2.8-.19,.41-1.38,2.98-3.15,2.97-.85,0-1.49-.61-1.66-.79-1.56-1.54-1.15-4.31-.61-7.25,1.15-6.32,2.54-11.73,3.23-14.59,.67-2.79,1.13-5.06,1.4-6.46-.82,0-2.44,.12-4.19,1.05-1.83,.96-2.86,2.29-3.32,2.97-.33,1.28-.85,3.36-1.46,5.93-1.33,5.62-1.87,8.58-3.43,12.6-1.95,5-3.14,6.07-4.37,6.47-1.02,.33-2.7,.4-3.84-.52-1.88-1.52-1.35-4.95,.52-15.21,.43-2.34,1.02-5.57,1.75-9.44-.33-.68-1.04-1.93-2.45-2.97-1.86-1.38-3.8-1.55-4.54-1.57-.57,2.74-.92,4.95-1.14,6.38-1.77,10.04-3.07,17.41-3.15,17.65-.06,.2-.17,.35-.17,.35-.06,.08-.12,.13-.15,.16l-.02,.02c-.19,.15-6.42,5.66-7.34,6.64l-.17,.17c-.32,.31-.6,.58-.7,.52-.08-.04-.02-.27,0-.35l.15-.51c.67-2.26,1.37-4.51,2.07-6.76,.36-1.17,.72-2.35,1.09-3.52,.15-.47,.44-1.08,.34-1.59-.04-.2-.15-.4-.27-.57-.24-.35-.58-.63-.93-.87-.35-.23-1.03-.55-1.45-.55-.35,0-.35,.23-.5,.54-.25,.5-.5,1-.76,1.49-3.94,7.68-6.07,11.71-8.73,11.73-1.22,0-2.13-.82-2.29-.97-3.4-3.2,1.01-13.1,4.62-18.11,4.19-5.83,6.93-5.38,7.87-5.38s2.35,1.25,2.35,3.17-2.32,2.21-2.32,3.29c0,.07-.28,2.69,3.29,2.69s4.88-6.05,4.88-6.05c0,0,2.26-11.82-9.35-11.82s-20.38,17.92-21.49,28.78c-1.24,12.09,8.52,9.74,9.07,12.85,.16,.89-.76,1.43-.76,1.43,0,0-14.16,7.28-18.88,24.73-4.73,17.45,9.95,15.45,9.95,15.45,6.18-1.36,9.84-4.37,11.49-5.95,6.39-6.11,7.26-14.38,7.67-18.28,0,0,.37-3.87-.18-10.31-.09-1.05-.35-2.82-.5-3.45-.02-.1,.06,.28-.11-.48-.17-.74-.2-.87-.18-1.05,.04-.29,.19-.5,.35-.7,.98-1.18,3.15-2.8,3.15-2.8,.18-.13,.86-.78,2.24-2.09,.79-.75,1.58-1.51,2.36-2.27,.52-.51,1.04-1.01,1.55-1.52,.29-.28,.58-.57,.86-.86,.18-.17,.34-.36,.51-.54,.09-.09,.17-.21,.28-.28,.3-.18,.33,.41,.39,.57,.2,.53,.46,1.05,.72,1.55,.56,1.05,1.25,2.03,2.07,2.88,.84,.87,1.82,1.62,2.91,2.15,1.17,.57,2.44,.89,3.74,.95,.17,0,.34,0,.5,0,5.43,0,9.47-6.51,9.39-6.54,.68,2.18,2.63,3.6,6.75,3.87,4.12,.28,8.15-4.19,8.92-4.19,.95,0,2.69,1.08,2.69,1.08,4.47,3.43,10.16,3.64,10.16,3.64,1.11,.14,2.23,.15,3.34,.03,1.47-.16,2.9-.56,4.25-1.17,1.29-.59,2.48-1.37,3.57-2.28,1.08-.9,2.05-1.92,2.93-3.02,.86-1.06,1.63-2.2,2.32-3.37,.65-1.08,1.23-2.2,1.76-3.35,.45-.97,.86-1.95,1.23-2.95,.27-.72,.52-1.44,.74-2.17,.1-.31,.36-.82,.22-1.15s-.55-.58-.83-.77c-.12-.08-.24-.17-.37-.25-.24-.15-.5-.27-.77-.37-.55-.21-1.21-.29-1.79-.32-.22,0-.46-.03-.67,.05-.06,.02-.1,.05-.14,.09"/><path class="f" d="M161.42,20.05c-1.04,0-1.89,.85-1.89,1.89s.85,1.89,1.89,1.89,1.89-.85,1.89-1.89-.85-1.89-1.89-1.89m0,4.08c-1.21,0-2.2-.98-2.2-2.2s.98-2.2,2.2-2.2,2.2,.99,2.2,2.2-.98,2.2-2.2,2.2"/><path class="f" d="M161.34,21.78c.09,0,.17-.01,.23-.03,.07-.02,.12-.05,.17-.09,.04-.04,.08-.09,.1-.14s.03-.12,.03-.18c0-.13-.04-.23-.13-.3-.09-.07-.22-.1-.4-.1h-.32v.85h.32Zm1.14,1.25h-.35c-.07,0-.12-.03-.15-.08l-.56-.81s-.04-.05-.06-.06-.06-.02-.1-.02h-.22v.97h-.39v-2.42h.71c.16,0,.3,.02,.41,.05,.12,.03,.21,.08,.28,.14,.07,.06,.13,.13,.16,.22,.03,.08,.05,.18,.05,.28,0,.08,0,.16-.04,.23-.02,.07-.06,.14-.11,.2-.05,.06-.11,.11-.17,.15-.07,.04-.15,.08-.24,.1,.05,.03,.09,.07,.12,.12l.65,.92h0Z"/></g><line class="h" x1="220.54" y1="1.8" x2="220.54" y2="97.8"/></g></g></g></g></svg>